<?xml version="1.0" standalone="no"?>
<!DOCTYPE svg PUBLIC "-//W3C//DTD SVG 20010904//EN"
 "http://www.w3.org/TR/2001/REC-SVG-20010904/DTD/svg10.dtd">
<svg version="1.0" xmlns="http://www.w3.org/2000/svg"
 width="796.000000pt" height="796.000000pt" viewBox="0 0 796.000000 796.000000"
 preserveAspectRatio="xMidYMid meet">
<metadata>
Created by potrace 1.11, written by Peter Selinger 2001-2013
</metadata>
<g transform="translate(0.000000,796.000000) scale(0.100000,-0.100000)"
fill="#000000" stroke="none">
<path d="M4400 7939 c-823 -74 -2058 -434 -2831 -825 -853 -431 -1322 -962
-1493 -1694 -91 -386 -91 -886 -1 -1431 82 -494 249 -1111 447 -1659 534
-1472 1204 -2148 2278 -2297 178 -24 616 -24 835 0 908 103 2173 493 2898 894
1405 777 1722 1892 1131 3978 -351 1238 -788 2069 -1322 2516 -335 279 -688
434 -1154 505 -124 19 -628 27 -788 13z m180 -2714 l575 -293 156 -484 c86
-266 171 -530 188 -588 17 -58 80 -254 139 -436 l109 -331 -331 -107 c-182
-59 -592 -192 -911 -296 -319 -104 -583 -186 -587 -182 -3 4 -68 196 -142 427
-75 231 -138 423 -139 426 -1 4 -200 -58 -442 -137 -242 -78 -440 -142 -441
-141 -1 1 -92 283 -204 627 -111 344 -244 755 -296 915 -52 159 -91 292 -86
296 4 4 273 93 597 199 325 106 732 239 905 295 173 57 320 104 325 104 6 0
269 -132 585 -294z"/>
</g>
</svg>
