<?xml version="1.0" encoding="utf-8"?>
<!-- Generator: Adobe Illustrator 18.0.0, SVG Export Plug-In . SVG Version: 6.00 Build 0)  -->
<!DOCTYPE svg PUBLIC "-//W3C//DTD SVG 1.1//EN" "http://www.w3.org/Graphics/SVG/1.1/DTD/svg11.dtd">
<svg version="1.1" id="Layer_1" xmlns="http://www.w3.org/2000/svg" xmlns:xlink="http://www.w3.org/1999/xlink" x="0px" y="0px"
	 viewBox="0 0 270 220.5" enable-background="new 0 0 270 220.5" xml:space="preserve">
<g>
	<rect x="290" y="0.2" fill="none" stroke="#71716F" stroke-miterlimit="10" width="270" height="73.5"/>
	<rect x="290" y="73.5" fill="none" stroke="#71716F" stroke-miterlimit="10" width="270" height="73.5"/>
	<rect x="290" y="147" fill="none" stroke="#71716F" stroke-miterlimit="10" width="270" height="73.5"/>
</g>
<g>
	<g>
		<path fill="#2E333A" d="M66.4,31.3c1.3,0.5,1.3,1,0.4,2.8c-1,1.9-1.3,2-2.5,1.5c-1.5-0.7-3.5-1.2-4.8-1.2c-2.1,0-3.5,0.8-3.5,1.9
			c0,3.8,12,1.7,12,9.7c0,4-3.5,6.7-8.6,6.7c-2.7,0-6.1-0.9-8.4-2.1c-1.2-0.6-1.2-0.9-0.2-2.8c0.9-1.7,1.1-1.9,2.4-1.3
			c2,0.9,4.5,1.5,6.2,1.5c1.9,0,3.2-0.8,3.2-1.9c0-3.6-12.2-1.9-12.2-9.7c0-4.1,3.4-6.9,8.6-6.9C61.3,29.6,64.3,30.3,66.4,31.3z"/>
		<path fill="#2E333A" d="M76.1,21.8v29.9c0,0.5-0.5,0.9-1.2,0.9h-3.1c-0.7,0-1.2-0.5-1.2-0.9V21.8c0-1.5,0.4-1.6,2.7-1.6
			C76,20.1,76.1,20.3,76.1,21.8z"/>
		<path fill="#2E333A" d="M98.4,38.6v12.9c0,0.7-0.5,1.2-1.2,1.2h-3.1c-0.7,0-1.2-0.5-1.2-1.2l0-1.4c-1.7,1.9-4.1,2.8-6.5,2.8
			c-4.7,0-7.8-2.7-7.8-6.8c0-4.3,3.6-7.2,8.9-7.2c2,0,3.9,0.4,5.4,1v-1.5c0-2.4-1.9-3.8-5-3.8c-1.5,0-3.3,0.6-4.8,1.4
			c-1.1,0.6-1.4,0.6-2.6-1.2c-1.2-1.8-1.1-2.1,0-2.9c2.2-1.4,5.1-2.3,7.9-2.3C94.6,29.6,98.4,32.9,98.4,38.6z M84,46
			c0,1.5,1.3,2.5,3.3,2.5c2.4,0,4.5-1.1,5.8-3.1v-2c-1.3-0.5-2.8-0.8-4.1-0.8C85.9,42.7,84,44.1,84,46z"/>
		<path fill="#2E333A" d="M119.8,31.3c1.1,0.7,1.2,1-0.1,3c-1.2,1.8-1.4,1.9-2.6,1.3c-1-0.5-2.5-0.9-3.7-0.9c-3.9,0-6.6,2.6-6.6,6.5
			c0,4.1,2.6,6.8,6.6,6.8c1.4,0,3.1-0.5,4.2-1.1c1.1-0.7,1.4-0.6,2.6,1.1c1.1,1.6,1.1,2,0.1,2.7c-1.8,1.2-4.5,2.1-7,2.1
			c-7.3,0-12.2-4.7-12.2-11.7c0-6.9,4.9-11.6,12.2-11.6C115.5,29.6,118.1,30.3,119.8,31.3z"/>
		<path fill="#2E333A" d="M143.5,49.7c0.9,1.2,0.5,1.6-1.7,2.4c-2.3,0.8-2.6,0.8-3.5-0.3l-6.5-8.7l-2.9,2.8v5.6
			c0,0.5-0.5,0.9-1.2,0.9h-3.1c-0.7,0-1.2-0.5-1.2-0.9V21.8c0-1.5,0.4-1.6,2.7-1.6c2.6,0,2.7,0.2,2.7,1.6v17l8.9-8.6
			c1-0.9,1.5-0.9,3.3,0.3c1.9,1.3,2.1,1.6,1.1,2.5l-6.6,6.5L143.5,49.7z"/>
	</g>
	<g>
		<path fill="#3FB991" d="M66.4,31.3c1.3,0.5,1.3,1,0.4,2.8c-1,1.9-1.3,2-2.5,1.5c-1.5-0.7-3.5-1.2-4.8-1.2c-2.1,0-3.5,0.8-3.5,1.9
			c0,3.8,12,1.7,12,9.7c0,4-3.5,6.7-8.6,6.7c-2.7,0-6.1-0.9-8.4-2.1c-1.2-0.6-1.2-0.9-0.2-2.8c0.9-1.7,1.1-1.9,2.4-1.3
			c2,0.9,4.5,1.5,6.2,1.5c1.9,0,3.2-0.8,3.2-1.9c0-3.6-12.2-1.9-12.2-9.7c0-4.1,3.4-6.9,8.6-6.9C61.3,29.6,64.3,30.3,66.4,31.3z"/>
		<path fill="#E11765" d="M76.1,21.8v29.9c0,0.5-0.5,0.9-1.2,0.9h-3.1c-0.7,0-1.2-0.5-1.2-0.9V21.8c0-1.5,0.4-1.6,2.7-1.6
			C76,20.1,76.1,20.3,76.1,21.8z"/>
		<path fill="#E9A823" d="M98.4,38.6v12.9c0,0.7-0.5,1.2-1.2,1.2h-3.1c-0.7,0-1.2-0.5-1.2-1.2l0-1.4c-1.7,1.9-4.1,2.8-6.5,2.8
			c-4.7,0-7.8-2.7-7.8-6.8c0-4.3,3.6-7.2,8.9-7.2c2,0,3.9,0.4,5.4,1v-1.5c0-2.4-1.9-3.8-5-3.8c-1.5,0-3.3,0.6-4.8,1.4
			c-1.1,0.6-1.4,0.6-2.6-1.2c-1.2-1.8-1.1-2.1,0-2.9c2.2-1.4,5.1-2.3,7.9-2.3C94.6,29.6,98.4,32.9,98.4,38.6z M84,46
			c0,1.5,1.3,2.5,3.3,2.5c2.4,0,4.5-1.1,5.8-3.1v-2c-1.3-0.5-2.8-0.8-4.1-0.8C85.9,42.7,84,44.1,84,46z"/>
		<path fill="#71CBDC" d="M119.8,31.3c1.1,0.7,1.2,1-0.1,3c-1.2,1.8-1.4,1.9-2.6,1.3c-1-0.5-2.5-0.9-3.7-0.9c-3.9,0-6.6,2.6-6.6,6.5
			c0,4.1,2.6,6.8,6.6,6.8c1.4,0,3.1-0.5,4.2-1.1c1.1-0.7,1.4-0.6,2.6,1.1c1.1,1.6,1.1,2,0.1,2.7c-1.8,1.2-4.5,2.1-7,2.1
			c-7.3,0-12.2-4.7-12.2-11.7c0-6.9,4.9-11.6,12.2-11.6C115.5,29.6,118.1,30.3,119.8,31.3z"/>
		<path fill="#3FB991" d="M143.5,49.7c0.9,1.2,0.5,1.6-1.7,2.4c-2.3,0.8-2.6,0.8-3.5-0.3l-6.5-8.7l-2.9,2.8v5.6
			c0,0.5-0.5,0.9-1.2,0.9h-3.1c-0.7,0-1.2-0.5-1.2-0.9V21.8c0-1.5,0.4-1.6,2.7-1.6c2.6,0,2.7,0.2,2.7,1.6v17l8.9-8.6
			c1-0.9,1.5-0.9,3.3,0.3c1.9,1.3,2.1,1.6,1.1,2.5l-6.6,6.5L143.5,49.7z"/>
	</g>
	<g>
		<path fill="#2E333A" d="M160.4,32.4c-0.1,0.1-0.2,0.2-0.3,0.2c-0.1,0-0.3-0.1-0.6-0.3c-0.2-0.2-0.6-0.4-1-0.7
			c-0.4-0.2-1-0.5-1.6-0.7c-0.7-0.2-1.5-0.3-2.4-0.3c-0.9,0-1.7,0.1-2.4,0.4c-0.7,0.3-1.4,0.6-1.9,1c-0.5,0.4-0.9,0.9-1.2,1.5
			c-0.3,0.6-0.4,1.2-0.4,1.8c0,0.8,0.2,1.4,0.6,1.9c0.4,0.5,0.9,0.9,1.5,1.3s1.3,0.7,2.1,0.9c0.8,0.2,1.5,0.5,2.3,0.7
			c0.8,0.2,1.6,0.5,2.3,0.8c0.8,0.3,1.5,0.6,2.1,1.1c0.6,0.4,1.1,0.9,1.5,1.6c0.4,0.6,0.6,1.4,0.6,2.3c0,0.9-0.2,1.8-0.5,2.6
			c-0.3,0.8-0.8,1.5-1.5,2.1c-0.6,0.6-1.4,1.1-2.3,1.4c-0.9,0.3-2,0.5-3.2,0.5c-0.8,0-1.5-0.1-2.2-0.2c-0.6-0.1-1.2-0.3-1.8-0.5
			c-0.6-0.2-1.1-0.5-1.6-0.8c-0.5-0.3-0.9-0.7-1.4-1.1l0.3-0.4c0.1-0.1,0.1-0.1,0.2-0.2c0.1,0,0.1-0.1,0.3-0.1
			c0.2,0,0.4,0.1,0.6,0.4c0.3,0.2,0.7,0.5,1.1,0.8c0.5,0.3,1.1,0.6,1.8,0.8c0.7,0.2,1.6,0.4,2.7,0.4c1,0,2-0.1,2.7-0.4
			c0.8-0.3,1.5-0.7,2-1.2c0.5-0.5,0.9-1.1,1.2-1.8c0.3-0.7,0.4-1.4,0.4-2.2c0-0.8-0.2-1.5-0.6-2c-0.4-0.5-0.9-1-1.5-1.4
			c-0.6-0.4-1.3-0.7-2.1-0.9c-0.8-0.3-1.5-0.5-2.3-0.7c-0.8-0.2-1.6-0.5-2.3-0.8c-0.8-0.3-1.5-0.6-2.1-1c-0.6-0.4-1.1-0.9-1.5-1.5
			c-0.4-0.6-0.6-1.4-0.6-2.3c0-0.8,0.2-1.5,0.5-2.2c0.3-0.7,0.8-1.3,1.4-1.8c0.6-0.5,1.4-1,2.2-1.3c0.9-0.3,1.8-0.5,2.9-0.5
			c1.3,0,2.4,0.2,3.4,0.5c1,0.4,1.9,0.9,2.8,1.7L160.4,32.4z"/>
		<path fill="#2E333A" d="M182.3,32.5c0,0-0.1,0.1-0.1,0.1c0,0-0.1,0.1-0.2,0.1c-0.1,0-0.3-0.1-0.6-0.3c-0.3-0.2-0.6-0.4-1.1-0.7
			c-0.5-0.3-1-0.5-1.7-0.7c-0.7-0.2-1.5-0.3-2.5-0.3c-1.4,0-2.6,0.2-3.7,0.7c-1.1,0.5-2,1.2-2.7,2.1c-0.7,0.9-1.3,2-1.7,3.3
			c-0.4,1.3-0.6,2.8-0.6,4.4c0,1.7,0.2,3.2,0.6,4.5c0.4,1.3,1,2.4,1.7,3.3c0.7,0.9,1.6,1.6,2.6,2c1,0.5,2.2,0.7,3.4,0.7
			c1.1,0,2.1-0.1,2.9-0.4c0.8-0.3,1.4-0.6,1.9-0.9c0.5-0.3,0.9-0.6,1.2-0.9c0.3-0.3,0.5-0.4,0.6-0.4c0.1,0,0.2,0,0.3,0.1l0.3,0.3
			c-0.3,0.4-0.6,0.7-1.1,1.1c-0.5,0.4-1,0.7-1.6,1c-0.6,0.3-1.3,0.5-2.1,0.7c-0.8,0.2-1.6,0.3-2.4,0.3c-1.4,0-2.7-0.3-3.9-0.8
			c-1.2-0.5-2.1-1.3-3-2.2c-0.8-1-1.5-2.2-1.9-3.6c-0.5-1.4-0.7-3-0.7-4.8c0-1.7,0.2-3.3,0.7-4.7c0.4-1.4,1.1-2.6,1.9-3.6
			c0.8-1,1.9-1.8,3.1-2.3c1.2-0.6,2.6-0.8,4.2-0.8c1.4,0,2.6,0.2,3.7,0.7c1.1,0.4,2,1,2.8,1.7L182.3,32.5z"/>
		<path fill="#2E333A" d="M189.9,36.1c0.3-1,0.7-1.9,1.2-2.7c0.5-0.8,1-1.4,1.6-2c0.6-0.5,1.3-1,2-1.2c0.8-0.3,1.6-0.4,2.5-0.4
			c0.4,0,0.9,0,1.3,0.1c0.5,0.1,0.9,0.2,1.2,0.4l-0.1,0.7c-0.1,0.2-0.2,0.2-0.3,0.2c-0.2,0-0.4-0.1-0.8-0.2
			c-0.3-0.1-0.8-0.2-1.5-0.2c-0.9,0-1.8,0.1-2.5,0.4c-0.7,0.3-1.4,0.7-1.9,1.3c-0.6,0.6-1.1,1.3-1.5,2.1c-0.4,0.9-0.8,1.9-1.2,3
			v14.6h-1.2V30.1h0.5c0.3,0,0.5,0.2,0.5,0.5L189.9,36.1z"/>
		<path fill="#2E333A" d="M203.2,33.3c1.1-1.1,2.3-2,3.5-2.6c1.2-0.6,2.6-0.9,4.2-0.9c1.2,0,2.2,0.2,3,0.6c0.9,0.4,1.6,0.9,2.1,1.6
			c0.6,0.7,1,1.5,1.3,2.5c0.3,1,0.4,2.1,0.4,3.3v14.6h-0.4c-0.3,0-0.5-0.2-0.5-0.5l-0.2-3.3c-0.6,0.6-1.2,1.2-1.8,1.7
			c-0.6,0.5-1.3,0.9-2,1.3c-0.7,0.4-1.4,0.6-2.2,0.8c-0.8,0.2-1.7,0.3-2.6,0.3c-0.7,0-1.4-0.1-2.1-0.3c-0.7-0.2-1.3-0.5-1.9-1
			c-0.6-0.5-1-1-1.3-1.7c-0.3-0.7-0.5-1.6-0.5-2.6c0-1,0.3-1.9,0.8-2.7c0.6-0.8,1.4-1.5,2.6-2.1c1.2-0.6,2.7-1,4.5-1.4
			c1.8-0.3,4-0.5,6.5-0.6v-2.6c0-2.2-0.5-4-1.4-5.2c-1-1.2-2.4-1.8-4.3-1.8c-1.1,0-2.1,0.2-2.9,0.5c-0.8,0.3-1.5,0.7-2,1.1
			c-0.5,0.4-1,0.8-1.3,1.1c-0.3,0.3-0.6,0.5-0.7,0.5c-0.2,0-0.3-0.1-0.4-0.2L203.2,33.3z M216.5,41.2c-4.5,0.2-7.9,0.7-10.1,1.7
			c-2.2,1-3.3,2.4-3.3,4.1c0,0.8,0.1,1.5,0.4,2.1c0.3,0.6,0.6,1.1,1.1,1.5c0.5,0.4,1,0.7,1.6,0.9c0.6,0.2,1.2,0.3,1.8,0.3
			c1,0,1.8-0.1,2.6-0.3c0.8-0.2,1.5-0.5,2.2-0.9c0.7-0.4,1.3-0.8,1.9-1.3c0.6-0.5,1.2-1.1,1.7-1.6V41.2z"/>
		<path fill="#2E333A" d="M226.5,34.4c1-1.5,2.2-2.6,3.6-3.4c1.4-0.8,2.9-1.3,4.6-1.3c2.8,0,5,0.9,6.5,2.8s2.3,4.7,2.3,8.5
			c0,1.6-0.2,3.1-0.6,4.5c-0.4,1.4-1,2.6-1.8,3.7c-0.8,1-1.8,1.9-3,2.4c-1.2,0.6-2.6,0.9-4.2,0.9c-3.1,0-5.5-1.2-7.1-3.7v11.5h-1.2
			V30.1h0.6c0.3,0,0.4,0.2,0.5,0.5L226.5,34.4z M226.6,47.7c0.9,1.5,1.9,2.5,3.1,3.1c1.1,0.6,2.4,0.9,3.9,0.9c1.5,0,2.7-0.3,3.8-0.8
			c1.1-0.5,2-1.3,2.7-2.2c0.7-0.9,1.3-2.1,1.6-3.4c0.4-1.3,0.5-2.7,0.5-4.2c0-3.5-0.7-6.1-2-7.8c-1.3-1.7-3.3-2.5-5.8-2.5
			c-1.6,0-3,0.4-4.3,1.3c-1.3,0.9-2.5,2-3.5,3.6V47.7z"/>
		<path fill="#2E333A" d="M266.5,49.6c-0.3,0.4-0.7,0.7-1.3,1.1c-0.5,0.4-1.2,0.7-1.9,1c-0.7,0.3-1.5,0.5-2.3,0.7
			c-0.8,0.2-1.7,0.3-2.5,0.3c-1.5,0-2.9-0.3-4.1-0.8c-1.2-0.5-2.3-1.3-3.1-2.3c-0.9-1-1.5-2.2-2-3.7c-0.5-1.5-0.7-3.1-0.7-5
			c0-1.6,0.2-3.1,0.7-4.5c0.4-1.3,1.1-2.5,1.9-3.5c0.8-1,1.9-1.7,3.1-2.3c1.2-0.5,2.6-0.8,4.1-0.8c1.2,0,2.3,0.2,3.4,0.6
			c1,0.4,2,1,2.7,1.9c0.8,0.8,1.4,1.8,1.8,3c0.4,1.2,0.7,2.6,0.7,4.1c0,0.3-0.1,0.5-0.4,0.5h-16.8c0,0.2,0,0.3,0,0.4
			c0,0.1,0,0.3,0,0.5c0,1.8,0.2,3.3,0.6,4.7c0.4,1.4,1,2.5,1.8,3.4c0.8,0.9,1.7,1.6,2.8,2.1c1.1,0.5,2.3,0.7,3.6,0.7
			c1.2,0,2.2-0.1,3.1-0.4c0.9-0.3,1.6-0.6,2.2-0.9c0.6-0.3,1-0.6,1.4-0.9c0.3-0.3,0.5-0.4,0.6-0.4c0.1,0,0.2,0,0.3,0.1L266.5,49.6z
			 M266,39.1c0-1.3-0.2-2.5-0.6-3.6c-0.4-1-0.9-1.9-1.6-2.6c-0.7-0.7-1.5-1.3-2.4-1.6c-0.9-0.4-1.9-0.6-3-0.6
			c-1.3,0-2.4,0.2-3.4,0.6c-1,0.4-1.9,1-2.6,1.7c-0.7,0.7-1.3,1.6-1.7,2.7c-0.4,1-0.7,2.2-0.9,3.5H266z"/>
	</g>
	<g>
		<rect x="7.4" y="29.7" fill="#FFFFFF" width="27.6" height="22.6"/>
		<g>
			<g>
				<g>
					<path fill="#2E333A" d="M40.3,35.1c-4.1-13.8-10.1-17-23.9-12.8C2.7,26.4-0.5,32.4,3.6,46.2c4.1,13.8,10.1,17,23.9,12.8
						C41.3,54.9,44.5,48.9,40.3,35.1z M30.8,44.9l-3.9,1.3l-5.4,1.8l-3.9,1.3l-1.3-3.9l-1.7-5.2l-1.3-3.9l3.9-1.3l5.4-1.8l5.3,2.6
						l1.7,5.2L30.8,44.9z"/>
				</g>
			</g>
			<g>
				<path fill="none" d="M18.7,38.9c0.5,1.6,1.1,3.3,1.6,4.9l0,0l0,0l4.9-1.6l-1.6-4.9C21.9,37.8,20.2,38.4,18.7,38.9z"/>
				<path fill="#E9A823" d="M26.6,36.3c-0.4,0.1-0.9,0.3-1.4,0.4c-0.5,0.2-1.1,0.4-1.7,0.5v0h0l1.6,4.9l0,0l0,0l2.9-0.9l1.5-0.5
					c-0.5-1.6-1.1-3.3-1.6-4.9c-0.3,0.1-0.5,0.2-0.8,0.3C26.9,36.2,26.8,36.2,26.6,36.3z"/>
				<path fill="#E9A823" d="M22.1,32.9"/>
				<path fill="#E9A823" d="M29.7,45.5c-0.5,0.2-1,0.3-1.5,0.5c-0.4,0.1-0.8,0.2-1.1,0.4c0,0,0,0-0.1,0c-0.2,0.1-0.3,0.1-0.5,0.2
					l4.4-1.4C30.5,45.2,30.1,45.4,29.7,45.5C29.7,45.5,29.7,45.5,29.7,45.5z"/>
				<path fill="#3FB991" d="M19.5,48.8C19.5,48.8,19.5,48.8,19.5,48.8c-0.2,0.1-0.2,0.1-0.3,0.1c-0.2,0.1-0.4,0.1-0.6,0.2
					c-0.5,0.2-0.9,0.3-1.3,0.4c0,0,0,0,0,0l4.4-1.4c-0.1,0-0.3,0.1-0.4,0.1C20.7,48.5,20.1,48.6,19.5,48.8z"/>
				<polygon fill="#3FB991" points="12.8,35.9 17.2,34.5 12.8,35.9 12.8,35.9 				"/>
				<path fill="#3FB991" d="M18.7,38.9c-0.1,0-0.2,0.1-0.4,0.1c-0.1,0-0.2,0.1-0.3,0.1c-0.5,0.2-1,0.3-1.5,0.5
					c-0.1,0-0.2,0.1-0.3,0.1c-0.2,0.1-0.3,0.1-0.5,0.2c-0.1,0-0.3,0.1-0.4,0.1c-0.2,0.1-0.3,0.1-0.5,0.2c-0.2,0.1-0.3,0.1-0.5,0.2v0
					l0,0l1.6,4.9l4.4-1.4C19.7,42.2,19.2,40.5,18.7,38.9z"/>
				<path fill="#E11765" d="M29.5,40.7L28,41.2L29.5,40.7c0.5,1.7,1,3.2,1.4,4.4c-0.4,0.1-0.8,0.3-1.2,0.4c0.4-0.1,0.8-0.3,1.2-0.4
					L29.5,40.7z"/>
				<path fill="#E11765" d="M27.1,46.4C27,46.4,27,46.4,27.1,46.4C27,46.4,27,46.4,27.1,46.4z"/>
				<path fill="#E11765" d="M29.7,45.5c-0.5,0.2-1,0.3-1.5,0.5C28.7,45.8,29.2,45.7,29.7,45.5z"/>
				<path fill="#E11765" d="M25.1,42.2L25.1,42.2l-4.9,1.6c0.5,1.7,1,3.2,1.4,4.4c-0.1,0-0.3,0.1-0.4,0.1c0.1,0,0.3-0.1,0.4-0.1
					c1.6-0.5,3.3-1.1,4.9-1.6L25.1,42.2z"/>
				<polygon fill="#E11765" points="17.3,49.6 15.8,45.2 17.3,49.6 17.3,49.6 				"/>
				<path fill="#E11765" d="M19.2,48.9c-0.2,0.1-0.4,0.1-0.6,0.2C18.8,49.1,19,49,19.2,48.9z"/>
				<path fill="#E11765" d="M19.5,48.8C19.5,48.8,19.5,48.8,19.5,48.8C19.5,48.8,19.5,48.8,19.5,48.8z"/>
				<path fill="#472A49" d="M17.3,49.6c0.4-0.1,0.9-0.3,1.3-0.4c0.2-0.1,0.4-0.1,0.6-0.2c0.1,0,0.2,0,0.2-0.1c0,0,0.1,0,0.1,0
					c0.5-0.2,1.1-0.4,1.7-0.6c0.1,0,0.3-0.1,0.4-0.1c-0.4-1.2-0.9-2.7-1.4-4.4l0,0l0,0l-4.4,1.4l0,0v0L17.3,49.6
					C17.3,49.6,17.3,49.6,17.3,49.6z"/>
				<path fill="#CD2027" d="M27.1,46.4c0.4-0.1,0.8-0.3,1.1-0.4c0.5-0.2,1-0.3,1.5-0.5c0,0,0,0,0,0c0.4-0.1,0.8-0.3,1.2-0.4
					c-0.4-1.2-0.9-2.7-1.4-4.4L28,41.2l-2.9,0.9l0,0l1.4,4.4l0,0l0,0C26.7,46.5,26.8,46.5,27.1,46.4C27,46.4,27,46.4,27.1,46.4z"/>
				<path fill="#71CBDC" d="M26.6,36.3c-0.4,0.1-0.9,0.3-1.4,0.4C25.7,36.6,26.1,36.4,26.6,36.3z"/>
				<path fill="#71CBDC" d="M18,39.1c-0.5,0.2-1,0.3-1.5,0.5C16.9,39.4,17.5,39.3,18,39.1z"/>
				<path fill="#71CBDC" d="M18.7,38.9c-0.1,0-0.2,0.1-0.4,0.1C18.4,39,18.5,38.9,18.7,38.9c1.6-0.5,3.3-1.1,4.9-1.6h0l-1.4-4.4
					l5.8,3c-0.3,0.1-0.5,0.2-0.8,0.3c0.3-0.1,0.6-0.2,0.8-0.3l-5.8-3l-4.9,1.6C17.6,35.7,18.1,37.2,18.7,38.9z"/>
				<rect x="13.5" y="35.8" fill="#71CBDC" width="0" height="4.6"/>
				<path fill="#71CBDC" d="M16.1,39.7c-0.2,0.1-0.3,0.1-0.5,0.2C15.8,39.8,16,39.8,16.1,39.7z"/>
				<path fill="#71CBDC" d="M15.3,40c-0.2,0.1-0.3,0.1-0.5,0.2C14.9,40.1,15.1,40,15.3,40z"/>
				<path fill="#1D947E" d="M12.8,35.9l1.4,4.4v0c0.2-0.1,0.3-0.1,0.5-0.2c0.2-0.1,0.3-0.1,0.5-0.2c0.1,0,0.3-0.1,0.4-0.1
					c0.2-0.1,0.3-0.1,0.5-0.2c0.1,0,0.2-0.1,0.3-0.1c0.5-0.2,1-0.3,1.5-0.5c0.1,0,0.2-0.1,0.3-0.1c0.1,0,0.2-0.1,0.4-0.1
					c-0.5-1.7-1-3.2-1.4-4.4l0,0l0,0L12.8,35.9L12.8,35.9z"/>
				<path fill="#66873A" d="M25.2,36.8c0.5-0.2,0.9-0.3,1.4-0.4c0.2-0.1,0.3-0.1,0.5-0.2c0.3-0.1,0.6-0.2,0.8-0.3l-5.8-3l1.4,4.4v0
					C24.1,37.1,24.7,36.9,25.2,36.8z"/>
			</g>
		</g>
	</g>
</g>
<g>
	<g>
		<path d="M66.9,104.3c1.3,0.5,1.3,1,0.4,2.8c-1,1.9-1.3,2-2.5,1.5c-1.5-0.7-3.5-1.2-4.8-1.2c-2.1,0-3.5,0.8-3.5,1.9
			c0,3.8,12,1.7,12,9.7c0,4-3.5,6.7-8.6,6.7c-2.7,0-6.1-0.9-8.4-2.1c-1.2-0.6-1.2-0.9-0.2-2.8c0.9-1.7,1.1-1.9,2.4-1.3
			c2,0.9,4.5,1.5,6.2,1.5c1.9,0,3.2-0.8,3.2-1.9c0-3.6-12.2-1.9-12.2-9.7c0-4.1,3.4-6.9,8.6-6.9C61.7,102.6,64.8,103.3,66.9,104.3z"
			/>
		<path d="M76.6,94.8v29.9c0,0.5-0.5,0.9-1.2,0.9h-3.1c-0.7,0-1.2-0.5-1.2-0.9V94.8c0-1.5,0.4-1.6,2.7-1.6
			C76.5,93.1,76.6,93.3,76.6,94.8z"/>
		<path d="M98.9,111.6v12.9c0,0.7-0.5,1.2-1.2,1.2h-3.1c-0.7,0-1.2-0.5-1.2-1.2l0-1.4c-1.7,1.9-4.1,2.8-6.5,2.8
			c-4.7,0-7.8-2.7-7.8-6.8c0-4.3,3.6-7.2,8.9-7.2c2,0,3.9,0.4,5.4,1v-1.5c0-2.4-1.9-3.8-5-3.8c-1.5,0-3.3,0.6-4.8,1.4
			c-1.1,0.6-1.4,0.6-2.6-1.2c-1.2-1.8-1.1-2.1,0-2.9c2.2-1.4,5.1-2.3,7.9-2.3C95.1,102.6,98.9,105.9,98.9,111.6z M84.4,119
			c0,1.5,1.3,2.5,3.3,2.5c2.4,0,4.5-1.1,5.8-3.1v-2c-1.3-0.5-2.8-0.8-4.1-0.8C86.4,115.7,84.4,117.1,84.4,119z"/>
		<path d="M120.2,104.3c1.1,0.7,1.2,1-0.1,3c-1.2,1.8-1.4,1.9-2.6,1.3c-1-0.5-2.5-0.9-3.7-0.9c-3.9,0-6.6,2.6-6.6,6.5
			c0,4.1,2.6,6.8,6.6,6.8c1.4,0,3.1-0.5,4.2-1.1c1.1-0.7,1.4-0.6,2.6,1.1c1.1,1.6,1.1,2,0.1,2.7c-1.8,1.2-4.5,2.1-7,2.1
			c-7.3,0-12.2-4.7-12.2-11.7c0-6.9,4.9-11.6,12.2-11.6C116,102.6,118.6,103.3,120.2,104.3z"/>
		<path d="M144,122.7c0.9,1.2,0.5,1.6-1.7,2.4c-2.3,0.8-2.6,0.8-3.5-0.3l-6.5-8.7l-2.9,2.8v5.6c0,0.5-0.5,0.9-1.2,0.9h-3.1
			c-0.7,0-1.2-0.5-1.2-0.9V94.8c0-1.5,0.4-1.6,2.7-1.6c2.6,0,2.7,0.2,2.7,1.6v17l8.9-8.6c1-0.9,1.5-0.9,3.3,0.3
			c1.9,1.3,2.1,1.6,1.1,2.5l-6.6,6.5L144,122.7z"/>
	</g>
	<g>
		<path fill="#B9B9B9" d="M66.9,104.3c1.3,0.5,1.3,1,0.4,2.8c-1,1.9-1.3,2-2.5,1.5c-1.5-0.7-3.5-1.2-4.8-1.2c-2.1,0-3.5,0.8-3.5,1.9
			c0,3.8,12,1.7,12,9.7c0,4-3.5,6.7-8.6,6.7c-2.7,0-6.1-0.9-8.4-2.1c-1.2-0.6-1.2-0.9-0.2-2.8c0.9-1.7,1.1-1.9,2.4-1.3
			c2,0.9,4.5,1.5,6.2,1.5c1.9,0,3.2-0.8,3.2-1.9c0-3.6-12.2-1.9-12.2-9.7c0-4.1,3.4-6.9,8.6-6.9C61.7,102.6,64.8,103.3,66.9,104.3z"
			/>
		<path fill="#595959" d="M76.6,94.8v29.9c0,0.5-0.5,0.9-1.2,0.9h-3.1c-0.7,0-1.2-0.5-1.2-0.9V94.8c0-1.5,0.4-1.6,2.7-1.6
			C76.5,93.1,76.6,93.3,76.6,94.8z"/>
		<path fill="#A7A7A7" d="M98.9,111.6v12.9c0,0.7-0.5,1.2-1.2,1.2h-3.1c-0.7,0-1.2-0.5-1.2-1.2l0-1.4c-1.7,1.9-4.1,2.8-6.5,2.8
			c-4.7,0-7.8-2.7-7.8-6.8c0-4.3,3.6-7.2,8.9-7.2c2,0,3.9,0.4,5.4,1v-1.5c0-2.4-1.9-3.8-5-3.8c-1.5,0-3.3,0.6-4.8,1.4
			c-1.1,0.6-1.4,0.6-2.6-1.2c-1.2-1.8-1.1-2.1,0-2.9c2.2-1.4,5.1-2.3,7.9-2.3C95.1,102.6,98.9,105.9,98.9,111.6z M84.4,119
			c0,1.5,1.3,2.5,3.3,2.5c2.4,0,4.5-1.1,5.8-3.1v-2c-1.3-0.5-2.8-0.8-4.1-0.8C86.4,115.7,84.4,117.1,84.4,119z"/>
		<path fill="#D3D3D3" d="M120.2,104.3c1.1,0.7,1.2,1-0.1,3c-1.2,1.8-1.4,1.9-2.6,1.3c-1-0.5-2.5-0.9-3.7-0.9
			c-3.9,0-6.6,2.6-6.6,6.5c0,4.1,2.6,6.8,6.6,6.8c1.4,0,3.1-0.5,4.2-1.1c1.1-0.7,1.4-0.6,2.6,1.1c1.1,1.6,1.1,2,0.1,2.7
			c-1.8,1.2-4.5,2.1-7,2.1c-7.3,0-12.2-4.7-12.2-11.7c0-6.9,4.9-11.6,12.2-11.6C116,102.6,118.6,103.3,120.2,104.3z"/>
		<path fill="#B9B9B9" d="M144,122.7c0.9,1.2,0.5,1.6-1.7,2.4c-2.3,0.8-2.6,0.8-3.5-0.3l-6.5-8.7l-2.9,2.8v5.6
			c0,0.5-0.5,0.9-1.2,0.9h-3.1c-0.7,0-1.2-0.5-1.2-0.9V94.8c0-1.5,0.4-1.6,2.7-1.6c2.6,0,2.7,0.2,2.7,1.6v17l8.9-8.6
			c1-0.9,1.5-0.9,3.3,0.3c1.9,1.3,2.1,1.6,1.1,2.5l-6.6,6.5L144,122.7z"/>
	</g>
	<g>
		<path d="M160.9,105.4c-0.1,0.1-0.2,0.2-0.3,0.2c-0.1,0-0.3-0.1-0.6-0.3c-0.2-0.2-0.6-0.4-1-0.7c-0.4-0.2-1-0.5-1.6-0.7
			s-1.5-0.3-2.4-0.3c-0.9,0-1.7,0.1-2.4,0.4c-0.7,0.3-1.4,0.6-1.9,1c-0.5,0.4-0.9,0.9-1.2,1.5c-0.3,0.6-0.4,1.2-0.4,1.8
			c0,0.8,0.2,1.4,0.6,1.9c0.4,0.5,0.9,0.9,1.5,1.3c0.6,0.4,1.3,0.7,2.1,0.9c0.8,0.2,1.5,0.5,2.3,0.7c0.8,0.2,1.6,0.5,2.3,0.8
			c0.8,0.3,1.5,0.6,2.1,1.1c0.6,0.4,1.1,0.9,1.5,1.6c0.4,0.6,0.6,1.4,0.6,2.3c0,0.9-0.2,1.8-0.5,2.6c-0.3,0.8-0.8,1.5-1.5,2.1
			c-0.6,0.6-1.4,1.1-2.3,1.4c-0.9,0.3-2,0.5-3.2,0.5c-0.8,0-1.5-0.1-2.2-0.2c-0.6-0.1-1.2-0.3-1.8-0.5c-0.6-0.2-1.1-0.5-1.6-0.8
			c-0.5-0.3-0.9-0.7-1.4-1.1l0.3-0.4c0.1-0.1,0.1-0.1,0.2-0.2c0.1,0,0.1-0.1,0.3-0.1c0.2,0,0.4,0.1,0.6,0.4c0.3,0.2,0.7,0.5,1.1,0.8
			c0.5,0.3,1.1,0.6,1.8,0.8c0.7,0.2,1.6,0.4,2.7,0.4c1,0,2-0.1,2.7-0.4c0.8-0.3,1.5-0.7,2-1.2c0.5-0.5,0.9-1.1,1.2-1.8
			c0.3-0.7,0.4-1.4,0.4-2.2c0-0.8-0.2-1.5-0.6-2c-0.4-0.5-0.9-1-1.5-1.4c-0.6-0.4-1.3-0.7-2.1-0.9c-0.8-0.3-1.5-0.5-2.3-0.7
			c-0.8-0.2-1.6-0.5-2.3-0.8c-0.8-0.3-1.5-0.6-2.1-1c-0.6-0.4-1.1-0.9-1.5-1.5c-0.4-0.6-0.6-1.4-0.6-2.3c0-0.8,0.2-1.5,0.5-2.2
			c0.3-0.7,0.8-1.3,1.4-1.8c0.6-0.5,1.4-1,2.2-1.3c0.9-0.3,1.8-0.5,2.9-0.5c1.3,0,2.4,0.2,3.4,0.5c1,0.4,1.9,0.9,2.8,1.7
			L160.9,105.4z"/>
		<path d="M182.7,105.5c0,0-0.1,0.1-0.1,0.1c0,0-0.1,0.1-0.2,0.1c-0.1,0-0.3-0.1-0.6-0.3c-0.3-0.2-0.6-0.4-1.1-0.7
			c-0.5-0.3-1-0.5-1.7-0.7c-0.7-0.2-1.5-0.3-2.5-0.3c-1.4,0-2.6,0.2-3.7,0.7c-1.1,0.5-2,1.2-2.7,2.1c-0.7,0.9-1.3,2-1.7,3.3
			c-0.4,1.3-0.6,2.8-0.6,4.4c0,1.7,0.2,3.2,0.6,4.5c0.4,1.3,1,2.4,1.7,3.3c0.7,0.9,1.6,1.6,2.6,2c1,0.5,2.2,0.7,3.4,0.7
			c1.1,0,2.1-0.1,2.9-0.4c0.8-0.3,1.4-0.6,1.9-0.9c0.5-0.3,0.9-0.6,1.2-0.9c0.3-0.3,0.5-0.4,0.6-0.4c0.1,0,0.2,0,0.3,0.1l0.3,0.3
			c-0.3,0.4-0.6,0.7-1.1,1.1c-0.5,0.4-1,0.7-1.6,1c-0.6,0.3-1.3,0.5-2.1,0.7c-0.8,0.2-1.6,0.3-2.4,0.3c-1.4,0-2.7-0.3-3.9-0.8
			c-1.2-0.5-2.1-1.3-3-2.2c-0.8-1-1.5-2.2-1.9-3.6c-0.5-1.4-0.7-3-0.7-4.8c0-1.7,0.2-3.3,0.7-4.7c0.4-1.4,1.1-2.6,1.9-3.6
			c0.8-1,1.9-1.8,3.1-2.3c1.2-0.6,2.6-0.8,4.2-0.8c1.4,0,2.6,0.2,3.7,0.7c1.1,0.4,2,1,2.8,1.7L182.7,105.5z"/>
		<path d="M190.3,109.1c0.3-1,0.7-1.9,1.2-2.7c0.5-0.8,1-1.4,1.6-2c0.6-0.5,1.3-1,2-1.2c0.8-0.3,1.6-0.4,2.5-0.4
			c0.4,0,0.9,0,1.3,0.1c0.5,0.1,0.9,0.2,1.2,0.4l-0.1,0.7c-0.1,0.2-0.2,0.2-0.3,0.2c-0.2,0-0.4-0.1-0.8-0.2
			c-0.3-0.1-0.8-0.2-1.5-0.2c-0.9,0-1.8,0.1-2.5,0.4c-0.7,0.3-1.4,0.7-1.9,1.3c-0.6,0.6-1.1,1.3-1.5,2.1c-0.4,0.9-0.8,1.9-1.2,3
			v14.6h-1.2v-22.2h0.5c0.3,0,0.5,0.2,0.5,0.5L190.3,109.1z"/>
		<path d="M203.7,106.3c1.1-1.1,2.3-2,3.5-2.6c1.2-0.6,2.6-0.9,4.2-0.9c1.2,0,2.2,0.2,3,0.6c0.9,0.4,1.6,0.9,2.1,1.6
			c0.6,0.7,1,1.5,1.3,2.5c0.3,1,0.4,2.1,0.4,3.3v14.6h-0.4c-0.3,0-0.5-0.2-0.5-0.5l-0.2-3.3c-0.6,0.6-1.2,1.2-1.8,1.7
			c-0.6,0.5-1.3,0.9-2,1.3c-0.7,0.4-1.4,0.6-2.2,0.8c-0.8,0.2-1.7,0.3-2.6,0.3c-0.7,0-1.4-0.1-2.1-0.3c-0.7-0.2-1.3-0.5-1.9-1
			c-0.6-0.5-1-1-1.3-1.7c-0.3-0.7-0.5-1.6-0.5-2.6c0-1,0.3-1.9,0.8-2.7c0.6-0.8,1.4-1.5,2.6-2.1c1.2-0.6,2.7-1,4.5-1.4
			c1.8-0.3,4-0.5,6.5-0.6v-2.6c0-2.2-0.5-4-1.4-5.2c-1-1.2-2.4-1.8-4.3-1.8c-1.1,0-2.1,0.2-2.9,0.5c-0.8,0.3-1.5,0.7-2,1.1
			c-0.5,0.4-1,0.8-1.3,1.1c-0.3,0.3-0.6,0.5-0.7,0.5c-0.2,0-0.3-0.1-0.4-0.2L203.7,106.3z M217,114.2c-4.5,0.2-7.9,0.7-10.1,1.7
			c-2.2,1-3.3,2.4-3.3,4.1c0,0.8,0.1,1.5,0.4,2.1c0.3,0.6,0.6,1.1,1.1,1.5c0.5,0.4,1,0.7,1.6,0.9c0.6,0.2,1.2,0.3,1.8,0.3
			c1,0,1.8-0.1,2.6-0.3c0.8-0.2,1.5-0.5,2.2-0.9c0.7-0.4,1.3-0.8,1.9-1.3c0.6-0.5,1.2-1.1,1.7-1.6V114.2z"/>
		<path d="M227,107.4c1-1.5,2.2-2.6,3.6-3.4s2.9-1.3,4.6-1.3c2.8,0,5,0.9,6.5,2.8c1.5,1.9,2.3,4.7,2.3,8.5c0,1.6-0.2,3.1-0.6,4.5
			c-0.4,1.4-1,2.6-1.8,3.7c-0.8,1-1.8,1.9-3,2.4c-1.2,0.6-2.6,0.9-4.2,0.9c-3.1,0-5.5-1.2-7.1-3.7v11.5h-1.2v-30.3h0.6
			c0.3,0,0.4,0.2,0.5,0.5L227,107.4z M227.1,120.7c0.9,1.5,1.9,2.5,3.1,3.1c1.1,0.6,2.4,0.9,3.9,0.9c1.5,0,2.7-0.3,3.8-0.8
			c1.1-0.5,2-1.3,2.7-2.2c0.7-0.9,1.3-2.1,1.6-3.4c0.4-1.3,0.5-2.7,0.5-4.2c0-3.5-0.7-6.1-2-7.8c-1.3-1.7-3.3-2.5-5.8-2.5
			c-1.6,0-3,0.4-4.3,1.3c-1.3,0.9-2.5,2-3.5,3.6V120.7z"/>
		<path d="M267,122.6c-0.3,0.4-0.7,0.7-1.3,1.1c-0.5,0.4-1.2,0.7-1.9,1c-0.7,0.3-1.5,0.5-2.3,0.7c-0.8,0.2-1.7,0.3-2.5,0.3
			c-1.5,0-2.9-0.3-4.1-0.8c-1.2-0.5-2.3-1.3-3.1-2.3c-0.9-1-1.5-2.2-2-3.7c-0.5-1.5-0.7-3.1-0.7-5c0-1.6,0.2-3.1,0.7-4.5
			c0.4-1.3,1.1-2.5,1.9-3.5c0.8-1,1.9-1.7,3.1-2.3c1.2-0.5,2.6-0.8,4.1-0.8c1.2,0,2.3,0.2,3.4,0.6c1,0.4,2,1,2.7,1.9
			c0.8,0.8,1.4,1.8,1.8,3c0.4,1.2,0.7,2.6,0.7,4.1c0,0.3-0.1,0.5-0.4,0.5h-16.8c0,0.2,0,0.3,0,0.4c0,0.1,0,0.3,0,0.5
			c0,1.8,0.2,3.3,0.6,4.7c0.4,1.4,1,2.5,1.8,3.4c0.8,0.9,1.7,1.6,2.8,2.1c1.1,0.5,2.3,0.7,3.6,0.7c1.2,0,2.2-0.1,3.1-0.4
			c0.9-0.3,1.6-0.6,2.2-0.9c0.6-0.3,1-0.6,1.4-0.9c0.3-0.3,0.5-0.4,0.6-0.4c0.1,0,0.2,0,0.3,0.1L267,122.6z M266.5,112.1
			c0-1.3-0.2-2.5-0.6-3.6c-0.4-1-0.9-1.9-1.6-2.6c-0.7-0.7-1.5-1.3-2.4-1.6c-0.9-0.4-1.9-0.6-3-0.6c-1.3,0-2.4,0.2-3.4,0.6
			c-1,0.4-1.9,1-2.6,1.7c-0.7,0.7-1.3,1.6-1.7,2.7c-0.4,1-0.7,2.2-0.9,3.5H266.5z"/>
	</g>
	<g>
		<rect x="7.9" y="102.7" fill="#FFFFFF" width="27.6" height="22.6"/>
		<g>
			<g>
				<g>
					<path d="M40.8,108.1c-4.1-13.8-10.1-17-23.9-12.8C3.2,99.4,0,105.4,4.1,119.2c4.1,13.8,10.1,17,23.9,12.8
						C41.7,127.9,44.9,121.9,40.8,108.1z M31.2,117.9l-3.9,1.3l-5.4,1.8l-3.9,1.3l-1.3-3.9l-1.7-5.2l-1.3-3.9l3.9-1.3l5.4-1.8
						l5.3,2.6l1.7,5.2L31.2,117.9z"/>
				</g>
			</g>
			<g>
				<path fill="none" d="M19.1,111.9c0.5,1.6,1.1,3.3,1.6,4.9l0,0l0,0l4.9-1.6l-1.6-4.9C22.4,110.8,20.7,111.4,19.1,111.9z"/>
				<path fill="#A7A7A7" d="M27.1,109.3c-0.4,0.1-0.9,0.3-1.4,0.4c-0.5,0.2-1.1,0.4-1.7,0.5v0h0l1.6,4.9l0,0l0,0l2.9-0.9l1.5-0.5
					c-0.5-1.6-1.1-3.3-1.6-4.9c-0.3,0.1-0.5,0.2-0.8,0.3C27.4,109.2,27.2,109.2,27.1,109.3z"/>
				<path fill="#A7A7A7" d="M22.6,105.9"/>
				<path fill="#A7A7A7" d="M30.2,118.5c-0.5,0.2-1,0.3-1.5,0.5c-0.4,0.1-0.8,0.2-1.1,0.4c0,0,0,0-0.1,0c-0.2,0.1-0.3,0.1-0.5,0.2
					l4.4-1.4C31,118.2,30.6,118.4,30.2,118.5C30.2,118.5,30.2,118.5,30.2,118.5z"/>
				<path fill="#B9B9B9" d="M20,121.8C20,121.8,19.9,121.8,20,121.8c-0.2,0.1-0.2,0.1-0.3,0.1c-0.2,0.1-0.4,0.1-0.6,0.2
					c-0.5,0.2-0.9,0.3-1.3,0.4c0,0,0,0,0,0l4.4-1.4c-0.1,0-0.3,0.1-0.4,0.1C21.1,121.5,20.6,121.6,20,121.8z"/>
				<polygon fill="#B9B9B9" points="13.3,108.9 17.7,107.5 13.3,108.9 13.3,108.9 				"/>
				<path fill="#B9B9B9" d="M19.1,111.9c-0.1,0-0.2,0.1-0.4,0.1c-0.1,0-0.2,0.1-0.3,0.1c-0.5,0.2-1,0.3-1.5,0.5
					c-0.1,0-0.2,0.1-0.3,0.1c-0.2,0.1-0.3,0.1-0.5,0.2c-0.1,0-0.3,0.1-0.4,0.1c-0.2,0.1-0.3,0.1-0.5,0.2c-0.2,0.1-0.3,0.1-0.5,0.2v0
					l0,0l1.6,4.9l4.4-1.4C20.2,115.2,19.6,113.5,19.1,111.9z"/>
				<path fill="#595959" d="M30,113.7l-1.5,0.5L30,113.7c0.5,1.7,1,3.2,1.4,4.4c-0.4,0.1-0.8,0.3-1.2,0.4c0.4-0.1,0.8-0.3,1.2-0.4
					L30,113.7z"/>
				<path fill="#595959" d="M27.5,119.4C27.5,119.4,27.5,119.4,27.5,119.4C27.5,119.4,27.5,119.4,27.5,119.4z"/>
				<path fill="#595959" d="M30.2,118.5c-0.5,0.2-1,0.3-1.5,0.5C29.2,118.8,29.7,118.7,30.2,118.5z"/>
				<path fill="#595959" d="M25.6,115.2L25.6,115.2l-4.9,1.6c0.5,1.7,1,3.2,1.4,4.4c-0.1,0-0.3,0.1-0.4,0.1c0.1,0,0.3-0.1,0.4-0.1
					c1.6-0.5,3.3-1.1,4.9-1.6L25.6,115.2z"/>
				<polygon fill="#595959" points="17.7,122.6 16.3,118.2 17.7,122.6 17.7,122.6 				"/>
				<path fill="#595959" d="M19.7,121.9c-0.2,0.1-0.4,0.1-0.6,0.2C19.3,122.1,19.5,122,19.7,121.9z"/>
				<path fill="#595959" d="M20,121.8C20,121.8,19.9,121.8,20,121.8C19.9,121.8,20,121.8,20,121.8z"/>
				<path d="M17.7,122.6c0.4-0.1,0.9-0.3,1.3-0.4c0.2-0.1,0.4-0.1,0.6-0.2c0.1,0,0.2,0,0.2-0.1c0,0,0.1,0,0.1,0
					c0.5-0.2,1.1-0.4,1.7-0.6c0.1,0,0.3-0.1,0.4-0.1c-0.4-1.2-0.9-2.7-1.4-4.4l0,0l0,0l-4.4,1.4l0,0v0L17.7,122.6
					C17.7,122.6,17.7,122.6,17.7,122.6z"/>
				<path fill="#3A3A3A" d="M27.5,119.4c0.4-0.1,0.8-0.3,1.1-0.4c0.5-0.2,1-0.3,1.5-0.5c0,0,0,0,0,0c0.4-0.1,0.8-0.3,1.2-0.4
					c-0.4-1.2-0.9-2.7-1.4-4.4l-1.5,0.5l-2.9,0.9l0,0l1.4,4.4l0,0l0,0C27.1,119.5,27.3,119.5,27.5,119.4
					C27.5,119.4,27.5,119.4,27.5,119.4z"/>
				<path fill="#D3D3D3" d="M27.1,109.3c-0.4,0.1-0.9,0.3-1.4,0.4C26.2,109.6,26.6,109.4,27.1,109.3z"/>
				<path fill="#D3D3D3" d="M18.4,112.1c-0.5,0.2-1,0.3-1.5,0.5C17.4,112.4,17.9,112.3,18.4,112.1z"/>
				<path fill="#D3D3D3" d="M19.1,111.9c-0.1,0-0.2,0.1-0.4,0.1C18.9,112,19,111.9,19.1,111.9c1.6-0.5,3.3-1.1,4.9-1.6h0l-1.4-4.4
					l5.8,3c-0.3,0.1-0.5,0.2-0.8,0.3c0.3-0.1,0.6-0.2,0.8-0.3l-5.8-3l-4.9,1.6C18.1,108.7,18.6,110.2,19.1,111.9z"/>
				<rect x="14" y="108.8" fill="#D3D3D3" width="0" height="4.6"/>
				<path fill="#D3D3D3" d="M16.6,112.7c-0.2,0.1-0.3,0.1-0.5,0.2C16.3,112.8,16.4,112.8,16.6,112.7z"/>
				<path fill="#D3D3D3" d="M15.7,113c-0.2,0.1-0.3,0.1-0.5,0.2C15.4,113.1,15.6,113,15.7,113z"/>
				<path fill="#8A8A8A" d="M13.3,108.9l1.4,4.4v0c0.2-0.1,0.3-0.1,0.5-0.2c0.2-0.1,0.3-0.1,0.5-0.2c0.1,0,0.3-0.1,0.4-0.1
					c0.2-0.1,0.3-0.1,0.5-0.2c0.1,0,0.2-0.1,0.3-0.1c0.5-0.2,1-0.3,1.5-0.5c0.1,0,0.2-0.1,0.3-0.1c0.1,0,0.2-0.1,0.4-0.1
					c-0.5-1.7-1-3.2-1.4-4.4l0,0l0,0L13.3,108.9L13.3,108.9z"/>
				<path fill="#6A6A6A" d="M25.7,109.8c0.5-0.2,0.9-0.3,1.4-0.4c0.2-0.1,0.3-0.1,0.5-0.2c0.3-0.1,0.6-0.2,0.8-0.3l-5.8-3l1.4,4.4v0
					C24.6,110.1,25.1,109.9,25.7,109.8z"/>
			</g>
		</g>
	</g>
</g>
<g>
	<g>
		<path fill="#2E333A" d="M67.1,176.9c1.3,0.5,1.3,1,0.4,2.8c-1,1.9-1.3,2-2.5,1.5c-1.5-0.7-3.5-1.2-4.8-1.2c-2.1,0-3.5,0.8-3.5,1.9
			c0,3.8,12,1.7,12,9.7c0,4-3.5,6.7-8.6,6.7c-2.7,0-6.1-0.9-8.4-2.1c-1.2-0.6-1.2-0.9-0.2-2.8c0.9-1.7,1.1-1.9,2.4-1.3
			c2,0.9,4.5,1.5,6.2,1.5c1.9,0,3.2-0.8,3.2-1.9c0-3.6-12.2-1.9-12.2-9.7c0-4.1,3.4-6.9,8.6-6.9C61.9,175.3,65,176,67.1,176.9z"/>
		<path fill="#2E333A" d="M76.8,167.4v29.9c0,0.5-0.5,0.9-1.2,0.9h-3.1c-0.7,0-1.2-0.5-1.2-0.9v-29.9c0-1.5,0.4-1.6,2.7-1.6
			C76.7,165.8,76.8,166,76.8,167.4z"/>
		<path fill="#2E333A" d="M99.1,184.2v12.9c0,0.7-0.5,1.2-1.2,1.2h-3.1c-0.7,0-1.2-0.5-1.2-1.2l0-1.4c-1.7,1.9-4.1,2.8-6.5,2.8
			c-4.7,0-7.8-2.7-7.8-6.8c0-4.3,3.6-7.2,8.9-7.2c2,0,3.9,0.4,5.4,1V184c0-2.4-1.9-3.8-5-3.8c-1.5,0-3.3,0.6-4.8,1.4
			c-1.1,0.6-1.4,0.6-2.6-1.2c-1.2-1.8-1.1-2.1,0-2.9c2.2-1.4,5.1-2.3,7.9-2.3C95.2,175.3,99.1,178.6,99.1,184.2z M84.6,191.7
			c0,1.5,1.3,2.5,3.3,2.5c2.4,0,4.5-1.1,5.8-3.1v-2c-1.3-0.5-2.8-0.8-4.1-0.8C86.6,188.4,84.6,189.8,84.6,191.7z"/>
		<path fill="#2E333A" d="M120.4,177c1.1,0.7,1.2,1-0.1,3c-1.2,1.8-1.4,1.9-2.6,1.3c-1-0.5-2.5-0.9-3.7-0.9c-3.9,0-6.6,2.6-6.6,6.5
			c0,4.1,2.6,6.8,6.6,6.8c1.4,0,3.1-0.5,4.2-1.1c1.1-0.7,1.4-0.6,2.6,1.1c1.1,1.6,1.1,2,0.1,2.7c-1.8,1.2-4.5,2.1-7,2.1
			c-7.3,0-12.2-4.7-12.2-11.7c0-6.9,4.9-11.6,12.2-11.6C116.1,175.3,118.8,176,120.4,177z"/>
		<path fill="#2E333A" d="M144.2,195.4c0.9,1.2,0.5,1.6-1.7,2.4c-2.3,0.8-2.6,0.8-3.5-0.3l-6.5-8.7l-2.9,2.8v5.6
			c0,0.5-0.5,0.9-1.2,0.9h-3.1c-0.7,0-1.2-0.5-1.2-0.9v-29.9c0-1.5,0.4-1.6,2.7-1.6c2.6,0,2.7,0.2,2.7,1.6v17l8.9-8.6
			c1-0.9,1.5-0.9,3.3,0.3c1.9,1.3,2.1,1.6,1.1,2.5l-6.6,6.5L144.2,195.4z"/>
	</g>
	<g>
		<path fill="#E6E6E5" d="M67.1,176.9c1.3,0.5,1.3,1,0.4,2.8c-1,1.9-1.3,2-2.5,1.5c-1.5-0.7-3.5-1.2-4.8-1.2c-2.1,0-3.5,0.8-3.5,1.9
			c0,3.8,12,1.7,12,9.7c0,4-3.5,6.7-8.6,6.7c-2.7,0-6.1-0.9-8.4-2.1c-1.2-0.6-1.2-0.9-0.2-2.8c0.9-1.7,1.1-1.9,2.4-1.3
			c2,0.9,4.5,1.5,6.2,1.5c1.9,0,3.2-0.8,3.2-1.9c0-3.6-12.2-1.9-12.2-9.7c0-4.1,3.4-6.9,8.6-6.9C61.9,175.3,65,176,67.1,176.9z"/>
		<path fill="#E6E6E5" d="M76.8,167.4v29.9c0,0.5-0.5,0.9-1.2,0.9h-3.1c-0.7,0-1.2-0.5-1.2-0.9v-29.9c0-1.5,0.4-1.6,2.7-1.6
			C76.7,165.8,76.8,166,76.8,167.4z"/>
		<path fill="#E6E6E5" d="M99.1,184.2v12.9c0,0.7-0.5,1.2-1.2,1.2h-3.1c-0.7,0-1.2-0.5-1.2-1.2l0-1.4c-1.7,1.9-4.1,2.8-6.5,2.8
			c-4.7,0-7.8-2.7-7.8-6.8c0-4.3,3.6-7.2,8.9-7.2c2,0,3.9,0.4,5.4,1V184c0-2.4-1.9-3.8-5-3.8c-1.5,0-3.3,0.6-4.8,1.4
			c-1.1,0.6-1.4,0.6-2.6-1.2c-1.2-1.8-1.1-2.1,0-2.9c2.2-1.4,5.1-2.3,7.9-2.3C95.2,175.3,99.1,178.6,99.1,184.2z M84.6,191.7
			c0,1.5,1.3,2.5,3.3,2.5c2.4,0,4.5-1.1,5.8-3.1v-2c-1.3-0.5-2.8-0.8-4.1-0.8C86.6,188.4,84.6,189.8,84.6,191.7z"/>
		<path fill="#E6E6E5" d="M120.4,177c1.1,0.7,1.2,1-0.1,3c-1.2,1.8-1.4,1.9-2.6,1.3c-1-0.5-2.5-0.9-3.7-0.9c-3.9,0-6.6,2.6-6.6,6.5
			c0,4.1,2.6,6.8,6.6,6.8c1.4,0,3.1-0.5,4.2-1.1c1.1-0.7,1.4-0.6,2.6,1.1c1.1,1.6,1.1,2,0.1,2.7c-1.8,1.2-4.5,2.1-7,2.1
			c-7.3,0-12.2-4.7-12.2-11.7c0-6.9,4.9-11.6,12.2-11.6C116.1,175.3,118.8,176,120.4,177z"/>
		<path fill="#E6E6E5" d="M144.2,195.4c0.9,1.2,0.5,1.6-1.7,2.4c-2.3,0.8-2.6,0.8-3.5-0.3l-6.5-8.7l-2.9,2.8v5.6
			c0,0.5-0.5,0.9-1.2,0.9h-3.1c-0.7,0-1.2-0.5-1.2-0.9v-29.9c0-1.5,0.4-1.6,2.7-1.6c2.6,0,2.7,0.2,2.7,1.6v17l8.9-8.6
			c1-0.9,1.5-0.9,3.3,0.3c1.9,1.3,2.1,1.6,1.1,2.5l-6.6,6.5L144.2,195.4z"/>
	</g>
	<g>
		<path fill="#E6E6E5" d="M161,178.1c-0.1,0.1-0.2,0.2-0.3,0.2c-0.1,0-0.3-0.1-0.6-0.3c-0.2-0.2-0.6-0.4-1-0.7
			c-0.4-0.2-1-0.5-1.6-0.7c-0.7-0.2-1.5-0.3-2.4-0.3c-0.9,0-1.7,0.1-2.4,0.4c-0.7,0.3-1.4,0.6-1.9,1c-0.5,0.4-0.9,0.9-1.2,1.5
			c-0.3,0.6-0.4,1.2-0.4,1.8c0,0.8,0.2,1.4,0.6,1.9c0.4,0.5,0.9,0.9,1.5,1.3s1.3,0.7,2.1,0.9c0.8,0.2,1.5,0.5,2.3,0.7
			c0.8,0.2,1.6,0.5,2.3,0.8c0.8,0.3,1.5,0.6,2.1,1.1c0.6,0.4,1.1,0.9,1.5,1.6c0.4,0.6,0.6,1.4,0.6,2.3c0,0.9-0.2,1.8-0.5,2.6
			c-0.3,0.8-0.8,1.5-1.5,2.1c-0.6,0.6-1.4,1.1-2.3,1.4c-0.9,0.3-2,0.5-3.2,0.5c-0.8,0-1.5-0.1-2.2-0.2c-0.6-0.1-1.2-0.3-1.8-0.5
			c-0.6-0.2-1.1-0.5-1.6-0.8c-0.5-0.3-0.9-0.7-1.4-1.1l0.3-0.4c0.1-0.1,0.1-0.1,0.2-0.2c0.1,0,0.1-0.1,0.3-0.1
			c0.2,0,0.4,0.1,0.6,0.4c0.3,0.2,0.7,0.5,1.1,0.8c0.5,0.3,1.1,0.6,1.8,0.8c0.7,0.2,1.6,0.4,2.7,0.4c1,0,2-0.1,2.7-0.4
			c0.8-0.3,1.5-0.7,2-1.2c0.5-0.5,0.9-1.1,1.2-1.8c0.3-0.7,0.4-1.4,0.4-2.2c0-0.8-0.2-1.5-0.6-2c-0.4-0.5-0.9-1-1.5-1.4
			c-0.6-0.4-1.3-0.7-2.1-0.9c-0.8-0.3-1.5-0.5-2.3-0.7c-0.8-0.2-1.6-0.5-2.3-0.8c-0.8-0.3-1.5-0.6-2.1-1c-0.6-0.4-1.1-0.9-1.5-1.5
			c-0.4-0.6-0.6-1.4-0.6-2.3c0-0.8,0.2-1.5,0.5-2.2c0.3-0.7,0.8-1.3,1.4-1.8c0.6-0.5,1.4-1,2.2-1.3c0.9-0.3,1.8-0.5,2.9-0.5
			c1.3,0,2.4,0.2,3.4,0.5c1,0.4,1.9,0.9,2.8,1.7L161,178.1z"/>
		<path fill="#E6E6E5" d="M182.9,178.2c0,0-0.1,0.1-0.1,0.1c0,0-0.1,0.1-0.2,0.1c-0.1,0-0.3-0.1-0.6-0.3c-0.3-0.2-0.6-0.4-1.1-0.7
			c-0.5-0.3-1-0.5-1.7-0.7c-0.7-0.2-1.5-0.3-2.5-0.3c-1.4,0-2.6,0.2-3.7,0.7c-1.1,0.5-2,1.2-2.7,2.1c-0.7,0.9-1.3,2-1.7,3.3
			c-0.4,1.3-0.6,2.8-0.6,4.4c0,1.7,0.2,3.2,0.6,4.5c0.4,1.3,1,2.4,1.7,3.3c0.7,0.9,1.6,1.6,2.6,2c1,0.5,2.2,0.7,3.4,0.7
			c1.1,0,2.1-0.1,2.9-0.4c0.8-0.3,1.4-0.6,1.9-0.9c0.5-0.3,0.9-0.6,1.2-0.9c0.3-0.3,0.5-0.4,0.6-0.4c0.1,0,0.2,0,0.3,0.1l0.3,0.3
			c-0.3,0.4-0.6,0.7-1.1,1.1c-0.5,0.4-1,0.7-1.6,1c-0.6,0.3-1.3,0.5-2.1,0.7c-0.8,0.2-1.6,0.3-2.4,0.3c-1.4,0-2.7-0.3-3.9-0.8
			c-1.2-0.5-2.1-1.3-3-2.2c-0.8-1-1.5-2.2-1.9-3.6c-0.5-1.4-0.7-3-0.7-4.8c0-1.7,0.2-3.3,0.7-4.7c0.4-1.4,1.1-2.6,1.9-3.6
			c0.8-1,1.9-1.8,3.1-2.3c1.2-0.6,2.6-0.8,4.2-0.8c1.4,0,2.6,0.2,3.7,0.7c1.1,0.4,2,1,2.8,1.7L182.9,178.2z"/>
		<path fill="#E6E6E5" d="M190.5,181.7c0.3-1,0.7-1.9,1.2-2.7c0.5-0.8,1-1.4,1.6-2c0.6-0.5,1.3-1,2-1.2c0.8-0.3,1.6-0.4,2.5-0.4
			c0.4,0,0.9,0,1.3,0.1c0.5,0.1,0.9,0.2,1.2,0.4l-0.1,0.7c-0.1,0.2-0.2,0.2-0.3,0.2c-0.2,0-0.4-0.1-0.8-0.2
			c-0.3-0.1-0.8-0.2-1.5-0.2c-0.9,0-1.8,0.1-2.5,0.4c-0.7,0.3-1.4,0.7-1.9,1.3c-0.6,0.6-1.1,1.3-1.5,2.1c-0.4,0.9-0.8,1.9-1.2,3V198
			h-1.2v-22.2h0.5c0.3,0,0.5,0.2,0.5,0.5L190.5,181.7z"/>
		<path fill="#E6E6E5" d="M203.8,178.9c1.1-1.1,2.3-2,3.5-2.6c1.2-0.6,2.6-0.9,4.2-0.9c1.2,0,2.2,0.2,3,0.6c0.9,0.4,1.6,0.9,2.1,1.6
			c0.6,0.7,1,1.5,1.3,2.5c0.3,1,0.4,2.1,0.4,3.3V198h-0.4c-0.3,0-0.5-0.2-0.5-0.5l-0.2-3.3c-0.6,0.6-1.2,1.2-1.8,1.7
			c-0.6,0.5-1.3,0.9-2,1.3c-0.7,0.4-1.4,0.6-2.2,0.8c-0.8,0.2-1.7,0.3-2.6,0.3c-0.7,0-1.4-0.1-2.1-0.3c-0.7-0.2-1.3-0.5-1.9-1
			c-0.6-0.5-1-1-1.3-1.7c-0.3-0.7-0.5-1.6-0.5-2.6c0-1,0.3-1.9,0.8-2.7c0.6-0.8,1.4-1.5,2.6-2.1c1.2-0.6,2.7-1,4.5-1.4
			c1.8-0.3,4-0.5,6.5-0.6v-2.6c0-2.2-0.5-4-1.4-5.2c-1-1.2-2.4-1.8-4.3-1.8c-1.1,0-2.1,0.2-2.9,0.5c-0.8,0.3-1.5,0.7-2,1.1
			c-0.5,0.4-1,0.8-1.3,1.1c-0.3,0.3-0.6,0.5-0.7,0.5c-0.2,0-0.3-0.1-0.4-0.2L203.8,178.9z M217.2,186.9c-4.5,0.2-7.9,0.7-10.1,1.7
			c-2.2,1-3.3,2.4-3.3,4.1c0,0.8,0.1,1.5,0.4,2.1c0.3,0.6,0.6,1.1,1.1,1.5c0.5,0.4,1,0.7,1.6,0.9c0.6,0.2,1.2,0.3,1.8,0.3
			c1,0,1.8-0.1,2.6-0.3c0.8-0.2,1.5-0.5,2.2-0.9c0.7-0.4,1.3-0.8,1.9-1.3c0.6-0.5,1.2-1.1,1.7-1.6V186.9z"/>
		<path fill="#E6E6E5" d="M227.2,180.1c1-1.5,2.2-2.6,3.6-3.4c1.4-0.8,2.9-1.3,4.6-1.3c2.8,0,5,0.9,6.5,2.8c1.5,1.9,2.3,4.7,2.3,8.5
			c0,1.6-0.2,3.1-0.6,4.5c-0.4,1.4-1,2.6-1.8,3.7c-0.8,1-1.8,1.9-3,2.4c-1.2,0.6-2.6,0.9-4.2,0.9c-3.1,0-5.5-1.2-7.1-3.7v11.5H226
			v-30.3h0.6c0.3,0,0.4,0.2,0.5,0.5L227.2,180.1z M227.2,193.4c0.9,1.5,1.9,2.5,3.1,3.1c1.1,0.6,2.4,0.9,3.9,0.9
			c1.5,0,2.7-0.3,3.8-0.8c1.1-0.5,2-1.3,2.7-2.2c0.7-0.9,1.3-2.1,1.6-3.4c0.4-1.3,0.5-2.7,0.5-4.2c0-3.5-0.7-6.1-2-7.8
			c-1.3-1.7-3.3-2.5-5.8-2.5c-1.6,0-3,0.4-4.3,1.3c-1.3,0.9-2.5,2-3.5,3.6V193.4z"/>
		<path fill="#E6E6E5" d="M267.2,195.3c-0.3,0.4-0.7,0.7-1.3,1.1c-0.5,0.4-1.2,0.7-1.9,1c-0.7,0.3-1.5,0.5-2.3,0.7
			c-0.8,0.2-1.7,0.3-2.5,0.3c-1.5,0-2.9-0.3-4.1-0.8c-1.2-0.5-2.3-1.3-3.1-2.3c-0.9-1-1.5-2.2-2-3.7c-0.5-1.5-0.7-3.1-0.7-5
			c0-1.6,0.2-3.1,0.7-4.5c0.4-1.3,1.1-2.5,1.9-3.5c0.8-1,1.9-1.7,3.1-2.3c1.2-0.5,2.6-0.8,4.1-0.8c1.2,0,2.3,0.2,3.4,0.6
			c1,0.4,2,1,2.7,1.9c0.8,0.8,1.4,1.8,1.8,3c0.4,1.2,0.7,2.6,0.7,4.1c0,0.3-0.1,0.5-0.4,0.5h-16.8c0,0.2,0,0.3,0,0.4
			c0,0.1,0,0.3,0,0.5c0,1.8,0.2,3.3,0.6,4.7c0.4,1.4,1,2.5,1.8,3.4c0.8,0.9,1.7,1.6,2.8,2.1c1.1,0.5,2.3,0.7,3.6,0.7
			c1.2,0,2.2-0.1,3.1-0.4c0.9-0.3,1.6-0.6,2.2-0.9s1-0.6,1.4-0.9c0.3-0.3,0.5-0.4,0.6-0.4c0.1,0,0.2,0,0.3,0.1L267.2,195.3z
			 M266.7,184.8c0-1.3-0.2-2.5-0.6-3.6c-0.4-1-0.9-1.9-1.6-2.6c-0.7-0.7-1.5-1.3-2.4-1.6c-0.9-0.4-1.9-0.6-3-0.6
			c-1.3,0-2.4,0.2-3.4,0.6c-1,0.4-1.9,1-2.6,1.7c-0.7,0.7-1.3,1.6-1.7,2.7c-0.4,1-0.7,2.2-0.9,3.5H266.7z"/>
	</g>
	<g>
		<rect x="8" y="175.4" fill="#FFFFFF" width="27.6" height="22.6"/>
		<g>
			<g>
				<g>
					<path fill="#2E333A" d="M41,180.8c-4.1-13.8-10.1-17-23.9-12.8c-13.8,4.1-17,10.1-12.8,23.9c4.1,13.8,10.1,17,23.9,12.8
						C41.9,200.5,45.1,194.6,41,180.8z M31.4,190.6l-3.9,1.3l-5.4,1.8l-3.9,1.3l-1.3-3.9l-1.7-5.2l-1.3-3.9l3.9-1.3l5.4-1.8l5.3,2.6
						l1.7,5.2L31.4,190.6z"/>
				</g>
			</g>
			<g>
				<path fill="none" d="M19.3,184.5c0.5,1.6,1.1,3.3,1.6,4.9l0,0l0,0l4.9-1.6l-1.6-4.9C22.6,183.5,20.9,184,19.3,184.5z"/>
				<path fill="#E9A823" d="M27.2,182c-0.4,0.1-0.9,0.3-1.4,0.4c-0.5,0.2-1.1,0.4-1.7,0.5v0h0l1.6,4.9l0,0l0,0l2.9-0.9l1.5-0.5
					c-0.5-1.6-1.1-3.3-1.6-4.9c-0.3,0.1-0.5,0.2-0.8,0.3C27.6,181.9,27.4,181.9,27.2,182z"/>
				<path fill="#E9A823" d="M22.7,178.6"/>
				<path fill="#E9A823" d="M30.3,191.2c-0.5,0.2-1,0.3-1.5,0.5c-0.4,0.1-0.8,0.2-1.1,0.4c0,0,0,0-0.1,0c-0.2,0.1-0.3,0.1-0.5,0.2
					l4.4-1.4C31.2,190.9,30.8,191,30.3,191.2C30.3,191.2,30.3,191.2,30.3,191.2z"/>
				<path fill="#3FB991" d="M20.2,194.5C20.2,194.5,20.1,194.5,20.2,194.5c-0.2,0.1-0.2,0.1-0.3,0.1c-0.2,0.1-0.4,0.1-0.6,0.2
					c-0.5,0.2-0.9,0.3-1.3,0.4c0,0,0,0,0,0l4.4-1.4c-0.1,0-0.3,0.1-0.4,0.1C21.3,194.1,20.7,194.3,20.2,194.5z"/>
				<polygon fill="#3FB991" points="13.5,181.6 17.9,180.2 13.5,181.6 13.5,181.6 				"/>
				<path fill="#3FB991" d="M19.3,184.5c-0.1,0-0.2,0.1-0.4,0.1c-0.1,0-0.2,0.1-0.3,0.1c-0.5,0.2-1,0.3-1.5,0.5
					c-0.1,0-0.2,0.1-0.3,0.1c-0.2,0.1-0.3,0.1-0.5,0.2c-0.1,0-0.3,0.1-0.4,0.1c-0.2,0.1-0.3,0.1-0.5,0.2c-0.2,0.1-0.3,0.1-0.5,0.2v0
					l0,0l1.6,4.9l4.4-1.4C20.4,187.8,19.8,186.1,19.3,184.5z"/>
				<path fill="#E11765" d="M30.1,186.4l-1.5,0.5L30.1,186.4c0.5,1.7,1,3.2,1.4,4.4c-0.4,0.1-0.8,0.3-1.2,0.4
					c0.4-0.1,0.8-0.3,1.2-0.4L30.1,186.4z"/>
				<path fill="#E11765" d="M27.7,192C27.7,192.1,27.7,192.1,27.7,192C27.7,192.1,27.7,192.1,27.7,192z"/>
				<path fill="#E11765" d="M30.3,191.2c-0.5,0.2-1,0.3-1.5,0.5C29.4,191.5,29.9,191.3,30.3,191.2z"/>
				<path fill="#E11765" d="M25.7,187.8L25.7,187.8l-4.9,1.6c0.5,1.7,1,3.2,1.4,4.4c-0.1,0-0.3,0.1-0.4,0.1c0.1,0,0.3-0.1,0.4-0.1
					c1.6-0.5,3.3-1.1,4.9-1.6L25.7,187.8z"/>
				<polygon fill="#E11765" points="17.9,195.2 16.5,190.8 17.9,195.2 17.9,195.2 				"/>
				<path fill="#E11765" d="M19.9,194.6c-0.2,0.1-0.4,0.1-0.6,0.2C19.5,194.7,19.7,194.7,19.9,194.6z"/>
				<path fill="#E11765" d="M20.2,194.5C20.2,194.5,20.1,194.5,20.2,194.5C20.1,194.5,20.2,194.5,20.2,194.5z"/>
				<path fill="#472A49" d="M17.9,195.2c0.4-0.1,0.9-0.3,1.3-0.4c0.2-0.1,0.4-0.1,0.6-0.2c0.1,0,0.2,0,0.2-0.1c0,0,0.1,0,0.1,0
					c0.5-0.2,1.1-0.4,1.7-0.6c0.1,0,0.3-0.1,0.4-0.1c-0.4-1.2-0.9-2.7-1.4-4.4l0,0l0,0l-4.4,1.4l0,0v0L17.9,195.2
					C17.9,195.2,17.9,195.2,17.9,195.2z"/>
				<path fill="#CD2027" d="M27.7,192c0.4-0.1,0.8-0.3,1.1-0.4c0.5-0.2,1-0.3,1.5-0.5c0,0,0,0,0,0c0.4-0.1,0.8-0.3,1.2-0.4
					c-0.4-1.2-0.9-2.7-1.4-4.4l-1.5,0.5l-2.9,0.9l0,0l1.4,4.4l0,0l0,0C27.3,192.2,27.5,192.1,27.7,192
					C27.7,192.1,27.7,192.1,27.7,192z"/>
				<path fill="#71CBDC" d="M27.2,182c-0.4,0.1-0.9,0.3-1.4,0.4C26.3,182.3,26.8,182.1,27.2,182z"/>
				<path fill="#71CBDC" d="M18.6,184.8c-0.5,0.2-1,0.3-1.5,0.5C17.6,185.1,18.1,184.9,18.6,184.8z"/>
				<path fill="#71CBDC" d="M19.3,184.5c-0.1,0-0.2,0.1-0.4,0.1C19.1,184.6,19.2,184.6,19.3,184.5c1.6-0.5,3.3-1.1,4.9-1.6h0
					l-1.4-4.4l5.8,3c-0.3,0.1-0.5,0.2-0.8,0.3c0.3-0.1,0.6-0.2,0.8-0.3l-5.8-3l-4.9,1.6C18.3,181.3,18.8,182.9,19.3,184.5z"/>
				<rect x="14.2" y="181.5" fill="#71CBDC" width="0" height="4.6"/>
				<path fill="#71CBDC" d="M16.8,185.4c-0.2,0.1-0.3,0.1-0.5,0.2C16.5,185.5,16.6,185.4,16.8,185.4z"/>
				<path fill="#71CBDC" d="M15.9,185.6c-0.2,0.1-0.3,0.1-0.5,0.2C15.6,185.8,15.7,185.7,15.9,185.6z"/>
				<path fill="#1D947E" d="M13.5,181.6l1.4,4.4v0c0.2-0.1,0.3-0.1,0.5-0.2c0.2-0.1,0.3-0.1,0.5-0.2c0.1,0,0.3-0.1,0.4-0.1
					c0.2-0.1,0.3-0.1,0.5-0.2c0.1,0,0.2-0.1,0.3-0.1c0.5-0.2,1-0.3,1.5-0.5c0.1,0,0.2-0.1,0.3-0.1c0.1,0,0.2-0.1,0.4-0.1
					c-0.5-1.7-1-3.2-1.4-4.4l0,0l0,0L13.5,181.6L13.5,181.6z"/>
				<path fill="#66873A" d="M25.8,182.4c0.5-0.2,0.9-0.3,1.4-0.4c0.2-0.1,0.3-0.1,0.5-0.2c0.3-0.1,0.6-0.2,0.8-0.3l-5.8-3l1.4,4.4v0
					C24.7,182.8,25.3,182.6,25.8,182.4z"/>
			</g>
		</g>
	</g>
</g>
<g>
</g>
<g>
</g>
<g>
</g>
<g>
</g>
<g>
</g>
<g>
</g>
</svg>
