<?xml version="1.0" encoding="utf-8"?>
<!-- Generator: Adobe Illustrator 18.0.0, SVG Export Plug-In . SVG Version: 6.00 Build 0)  -->
<!DOCTYPE svg PUBLIC "-//W3C//DTD SVG 1.1//EN" "http://www.w3.org/Graphics/SVG/1.1/DTD/svg11.dtd">
<svg version="1.1" id="Layer_1" xmlns="http://www.w3.org/2000/svg" xmlns:xlink="http://www.w3.org/1999/xlink" x="0px" y="0px"
	 viewBox="0 0 270 75" enable-background="new 0 0 270 75" xml:space="preserve">
<g>
	<path d="M68.4,28.3c1.3,0.5,1.3,1,0.4,2.8c-1,1.9-1.3,2-2.5,1.5c-1.5-0.7-3.5-1.2-4.8-1.2c-2.1,0-3.5,0.8-3.5,1.9
		c0,3.8,12,1.7,12,9.7c0,4-3.5,6.7-8.6,6.7c-2.7,0-6.1-0.9-8.4-2.1c-1.2-0.6-1.2-0.9-0.2-2.8c0.9-1.7,1.1-1.9,2.4-1.3
		c2,0.9,4.5,1.5,6.2,1.5c1.9,0,3.2-0.8,3.2-1.9c0-3.6-12.2-1.9-12.2-9.7c0-4.1,3.4-6.9,8.6-6.9C63.3,26.6,66.3,27.3,68.4,28.3z"/>
	<path d="M78.1,18.8v29.9c0,0.5-0.5,0.9-1.2,0.9h-3.1c-0.7,0-1.2-0.5-1.2-0.9V18.8c0-1.5,0.4-1.6,2.7-1.6
		C78,17.1,78.1,17.3,78.1,18.8z"/>
	<path d="M100.4,35.6v12.9c0,0.7-0.5,1.2-1.2,1.2h-3.1c-0.7,0-1.2-0.5-1.2-1.2v-1.4c-1.7,1.9-4.1,2.8-6.5,2.8
		c-4.7,0-7.8-2.7-7.8-6.8c0-4.3,3.6-7.2,8.9-7.2c2,0,3.9,0.4,5.4,1v-1.5c0-2.4-1.9-3.8-5-3.8c-1.5,0-3.3,0.6-4.8,1.4
		c-1.1,0.6-1.4,0.6-2.6-1.2s-1.1-2.1,0-2.9c2.2-1.4,5.1-2.3,7.9-2.3C96.6,26.6,100.4,29.9,100.4,35.6z M86,43c0,1.5,1.3,2.5,3.3,2.5
		c2.4,0,4.5-1.1,5.8-3.1v-2c-1.3-0.5-2.8-0.8-4.1-0.8C87.9,39.7,86,41.1,86,43z"/>
	<path d="M121.8,28.3c1.1,0.7,1.2,1-0.1,3c-1.2,1.8-1.4,1.9-2.6,1.3c-1-0.5-2.5-0.9-3.7-0.9c-3.9,0-6.6,2.6-6.6,6.5
		c0,4.1,2.6,6.8,6.6,6.8c1.4,0,3.1-0.5,4.2-1.1c1.1-0.7,1.4-0.6,2.6,1.1c1.1,1.6,1.1,2,0.1,2.7c-1.8,1.2-4.5,2.1-7,2.1
		c-7.3,0-12.2-4.7-12.2-11.7c0-6.9,4.9-11.6,12.2-11.6C117.5,26.6,120.1,27.3,121.8,28.3z"/>
	<path d="M145.5,46.7c0.9,1.2,0.5,1.6-1.7,2.4c-2.3,0.8-2.6,0.8-3.5-0.3l-6.5-8.7l-2.9,2.8v5.6c0,0.5-0.5,0.9-1.2,0.9h-3.1
		c-0.7,0-1.2-0.5-1.2-0.9V18.8c0-1.5,0.4-1.6,2.7-1.6c2.6,0,2.7,0.2,2.7,1.6v17l8.9-8.6c1-0.9,1.5-0.9,3.3,0.3
		c1.9,1.3,2.1,1.6,1.1,2.5l-6.6,6.5L145.5,46.7z"/>
</g>
<g>
	<path fill="#B8B8B8" d="M68.4,28.3c1.3,0.5,1.3,1,0.4,2.8c-1,1.9-1.3,2-2.5,1.5c-1.5-0.7-3.5-1.2-4.8-1.2c-2.1,0-3.5,0.8-3.5,1.9
		c0,3.8,12,1.7,12,9.7c0,4-3.5,6.7-8.6,6.7c-2.7,0-6.1-0.9-8.4-2.1c-1.2-0.6-1.2-0.9-0.2-2.8c0.9-1.7,1.1-1.9,2.4-1.3
		c2,0.9,4.5,1.5,6.2,1.5c1.9,0,3.2-0.8,3.2-1.9c0-3.6-12.2-1.9-12.2-9.7c0-4.1,3.4-6.9,8.6-6.9C63.3,26.6,66.3,27.3,68.4,28.3z"/>
	<path fill="#595959" d="M78.1,18.8v29.9c0,0.5-0.5,0.9-1.2,0.9h-3.1c-0.7,0-1.2-0.5-1.2-0.9V18.8c0-1.5,0.4-1.6,2.7-1.6
		C78,17.1,78.1,17.3,78.1,18.8z"/>
	<path fill="#A7A7A7" d="M100.4,35.6v12.9c0,0.7-0.5,1.2-1.2,1.2h-3.1c-0.7,0-1.2-0.5-1.2-1.2v-1.4c-1.7,1.9-4.1,2.8-6.5,2.8
		c-4.7,0-7.8-2.7-7.8-6.8c0-4.3,3.6-7.2,8.9-7.2c2,0,3.9,0.4,5.4,1v-1.5c0-2.4-1.9-3.8-5-3.8c-1.5,0-3.3,0.6-4.8,1.4
		c-1.1,0.6-1.4,0.6-2.6-1.2s-1.1-2.1,0-2.9c2.2-1.4,5.1-2.3,7.9-2.3C96.6,26.6,100.4,29.9,100.4,35.6z M86,43c0,1.5,1.3,2.5,3.3,2.5
		c2.4,0,4.5-1.1,5.8-3.1v-2c-1.3-0.5-2.8-0.8-4.1-0.8C87.9,39.7,86,41.1,86,43z"/>
	<path fill="#D3D3D3" d="M121.8,28.3c1.1,0.7,1.2,1-0.1,3c-1.2,1.8-1.4,1.9-2.6,1.3c-1-0.5-2.5-0.9-3.7-0.9c-3.9,0-6.6,2.6-6.6,6.5
		c0,4.1,2.6,6.8,6.6,6.8c1.4,0,3.1-0.5,4.2-1.1c1.1-0.7,1.4-0.6,2.6,1.1c1.1,1.6,1.1,2,0.1,2.7c-1.8,1.2-4.5,2.1-7,2.1
		c-7.3,0-12.2-4.7-12.2-11.7c0-6.9,4.9-11.6,12.2-11.6C117.5,26.6,120.1,27.3,121.8,28.3z"/>
	<path fill="#B8B8B8" d="M145.5,46.7c0.9,1.2,0.5,1.6-1.7,2.4c-2.3,0.8-2.6,0.8-3.5-0.3l-6.5-8.7l-2.9,2.8v5.6
		c0,0.5-0.5,0.9-1.2,0.9h-3.1c-0.7,0-1.2-0.5-1.2-0.9V18.8c0-1.5,0.4-1.6,2.7-1.6c2.6,0,2.7,0.2,2.7,1.6v17l8.9-8.6
		c1-0.9,1.5-0.9,3.3,0.3c1.9,1.3,2.1,1.6,1.1,2.5l-6.6,6.5L145.5,46.7z"/>
</g>
<g>
	<path d="M162.4,29.4c-0.1,0.1-0.2,0.2-0.3,0.2s-0.3-0.1-0.6-0.3c-0.2-0.2-0.6-0.4-1-0.7c-0.4-0.2-1-0.5-1.6-0.7
		c-0.7-0.2-1.5-0.3-2.4-0.3s-1.7,0.1-2.4,0.4s-1.4,0.6-1.9,1c-0.5,0.4-0.9,0.9-1.2,1.5s-0.4,1.2-0.4,1.8c0,0.8,0.2,1.4,0.6,1.9
		c0.4,0.5,0.9,0.9,1.5,1.3s1.3,0.7,2.1,0.9s1.5,0.5,2.3,0.7s1.6,0.5,2.3,0.8c0.8,0.3,1.5,0.6,2.1,1.1c0.6,0.4,1.1,0.9,1.5,1.6
		c0.4,0.6,0.6,1.4,0.6,2.3c0,0.9-0.2,1.8-0.5,2.6s-0.8,1.5-1.5,2.1c-0.6,0.6-1.4,1.1-2.3,1.4c-0.9,0.3-2,0.5-3.2,0.5
		c-0.8,0-1.5-0.1-2.2-0.2c-0.6-0.1-1.2-0.3-1.8-0.5s-1.1-0.5-1.6-0.8s-0.9-0.7-1.4-1.1l0.3-0.4c0.1-0.1,0.1-0.1,0.2-0.2
		c0.1,0,0.1-0.1,0.3-0.1s0.4,0.1,0.6,0.4c0.3,0.2,0.7,0.5,1.1,0.8c0.5,0.3,1.1,0.6,1.8,0.8s1.6,0.4,2.7,0.4c1,0,2-0.1,2.7-0.4
		c0.8-0.3,1.5-0.7,2-1.2s0.9-1.1,1.2-1.8s0.4-1.4,0.4-2.2s-0.2-1.5-0.6-2c-0.4-0.5-0.9-1-1.5-1.4s-1.3-0.7-2.1-0.9
		c-0.8-0.3-1.5-0.5-2.3-0.7s-1.6-0.5-2.3-0.8c-0.8-0.3-1.5-0.6-2.1-1s-1.1-0.9-1.5-1.5s-0.6-1.4-0.6-2.3c0-0.8,0.2-1.5,0.5-2.2
		s0.8-1.3,1.4-1.8c0.6-0.5,1.4-1,2.2-1.3c0.9-0.3,1.8-0.5,2.9-0.5c1.3,0,2.4,0.2,3.4,0.5c1,0.4,1.9,0.9,2.8,1.7L162.4,29.4z"/>
	<path d="M184.3,29.5l-0.1,0.1c0,0-0.1,0.1-0.2,0.1c-0.1,0-0.3-0.1-0.6-0.3s-0.6-0.4-1.1-0.7c-0.5-0.3-1-0.5-1.7-0.7
		s-1.5-0.3-2.5-0.3c-1.4,0-2.6,0.2-3.7,0.7c-1.1,0.5-2,1.2-2.7,2.1c-0.7,0.9-1.3,2-1.7,3.3s-0.6,2.8-0.6,4.4c0,1.7,0.2,3.2,0.6,4.5
		c0.4,1.3,1,2.4,1.7,3.3c0.7,0.9,1.6,1.6,2.6,2c1,0.5,2.2,0.7,3.4,0.7c1.1,0,2.1-0.1,2.9-0.4c0.8-0.3,1.4-0.6,1.9-0.9
		c0.5-0.3,0.9-0.6,1.2-0.9c0.3-0.3,0.5-0.4,0.6-0.4s0.2,0,0.3,0.1l0.3,0.3c-0.3,0.4-0.6,0.7-1.1,1.1c-0.5,0.4-1,0.7-1.6,1
		s-1.3,0.5-2.1,0.7s-1.6,0.3-2.4,0.3c-1.4,0-2.7-0.3-3.9-0.8s-2.1-1.3-3-2.2c-0.8-1-1.5-2.2-1.9-3.6c-0.5-1.4-0.7-3-0.7-4.8
		c0-1.7,0.2-3.3,0.7-4.7c0.4-1.4,1.1-2.6,1.9-3.6c0.8-1,1.9-1.8,3.1-2.3c1.2-0.6,2.6-0.8,4.2-0.8c1.4,0,2.6,0.2,3.7,0.7
		c1.1,0.4,2,1,2.8,1.7L184.3,29.5z"/>
	<path d="M191.9,33.1c0.3-1,0.7-1.9,1.2-2.7s1-1.4,1.6-2c0.6-0.5,1.3-1,2-1.2c0.8-0.3,1.6-0.4,2.5-0.4c0.4,0,0.9,0,1.3,0.1
		c0.5,0.1,0.9,0.2,1.2,0.4l-0.1,0.7c-0.1,0.2-0.2,0.2-0.3,0.2c-0.2,0-0.4-0.1-0.8-0.2c-0.3-0.1-0.8-0.2-1.5-0.2
		c-0.9,0-1.8,0.1-2.5,0.4s-1.4,0.7-1.9,1.3c-0.6,0.6-1.1,1.3-1.5,2.1c-0.4,0.9-0.8,1.9-1.2,3v14.6h-1.2V27.1h0.5
		c0.3,0,0.5,0.2,0.5,0.5L191.9,33.1z"/>
	<path d="M205.2,30.3c1.1-1.1,2.3-2,3.5-2.6s2.6-0.9,4.2-0.9c1.2,0,2.2,0.2,3,0.6c0.9,0.4,1.6,0.9,2.1,1.6c0.6,0.7,1,1.5,1.3,2.5
		s0.4,2.1,0.4,3.3v14.6h-0.4c-0.3,0-0.5-0.2-0.5-0.5l-0.2-3.3c-0.6,0.6-1.2,1.2-1.8,1.7s-1.3,0.9-2,1.3c-0.7,0.4-1.4,0.6-2.2,0.8
		s-1.7,0.3-2.6,0.3c-0.7,0-1.4-0.1-2.1-0.3c-0.7-0.2-1.3-0.5-1.9-1c-0.6-0.5-1-1-1.3-1.7s-0.5-1.6-0.5-2.6s0.3-1.9,0.8-2.7
		c0.6-0.8,1.4-1.5,2.6-2.1c1.2-0.6,2.7-1,4.5-1.4c1.8-0.3,4-0.5,6.5-0.6v-2.6c0-2.2-0.5-4-1.4-5.2c-1-1.2-2.4-1.8-4.3-1.8
		c-1.1,0-2.1,0.2-2.9,0.5c-0.8,0.3-1.5,0.7-2,1.1c-0.5,0.4-1,0.8-1.3,1.1s-0.6,0.5-0.7,0.5c-0.2,0-0.3-0.1-0.4-0.2L205.2,30.3z
		 M218.5,38.2c-4.5,0.2-7.9,0.7-10.1,1.7c-2.2,1-3.3,2.4-3.3,4.1c0,0.8,0.1,1.5,0.4,2.1c0.3,0.6,0.6,1.1,1.1,1.5s1,0.7,1.6,0.9
		s1.2,0.3,1.8,0.3c1,0,1.8-0.1,2.6-0.3s1.5-0.5,2.2-0.9s1.3-0.8,1.9-1.3c0.6-0.5,1.2-1.1,1.7-1.6v-6.5H218.5z"/>
	<path d="M228.5,31.4c1-1.5,2.2-2.6,3.6-3.4c1.4-0.8,2.9-1.3,4.6-1.3c2.8,0,5,0.9,6.5,2.8s2.3,4.7,2.3,8.5c0,1.6-0.2,3.1-0.6,4.5
		c-0.4,1.4-1,2.6-1.8,3.7c-0.8,1-1.8,1.9-3,2.4c-1.2,0.6-2.6,0.9-4.2,0.9c-3.1,0-5.5-1.2-7.1-3.7v11.5h-1.2V27.1h0.6
		c0.3,0,0.4,0.2,0.5,0.5L228.5,31.4z M228.6,44.7c0.9,1.5,1.9,2.5,3.1,3.1c1.1,0.6,2.4,0.9,3.9,0.9s2.7-0.3,3.8-0.8s2-1.3,2.7-2.2
		s1.3-2.1,1.6-3.4c0.4-1.3,0.5-2.7,0.5-4.2c0-3.5-0.7-6.1-2-7.8s-3.3-2.5-5.8-2.5c-1.6,0-3,0.4-4.3,1.3c-1.3,0.9-2.5,2-3.5,3.6V44.7
		z"/>
	<path d="M268.5,46.6c-0.3,0.4-0.7,0.7-1.3,1.1c-0.5,0.4-1.2,0.7-1.9,1c-0.7,0.3-1.5,0.5-2.3,0.7s-1.7,0.3-2.5,0.3
		c-1.5,0-2.9-0.3-4.1-0.8c-1.2-0.5-2.3-1.3-3.1-2.3c-0.9-1-1.5-2.2-2-3.7s-0.7-3.1-0.7-5c0-1.6,0.2-3.1,0.7-4.5
		c0.4-1.3,1.1-2.5,1.9-3.5c0.8-1,1.9-1.7,3.1-2.3c1.2-0.5,2.6-0.8,4.1-0.8c1.2,0,2.3,0.2,3.4,0.6c1,0.4,2,1,2.7,1.9
		c0.8,0.8,1.4,1.8,1.8,3s0.7,2.6,0.7,4.1c0,0.3-0.1,0.5-0.4,0.5h-16.8c0,0.2,0,0.3,0,0.4c0,0.1,0,0.3,0,0.5c0,1.8,0.2,3.3,0.6,4.7
		c0.4,1.4,1,2.5,1.8,3.4s1.7,1.6,2.8,2.1c1.1,0.5,2.3,0.7,3.6,0.7c1.2,0,2.2-0.1,3.1-0.4c0.9-0.3,1.6-0.6,2.2-0.9
		c0.6-0.3,1-0.6,1.4-0.9c0.3-0.3,0.5-0.4,0.6-0.4s0.2,0,0.3,0.1L268.5,46.6z M268,36.1c0-1.3-0.2-2.5-0.6-3.6
		c-0.4-1-0.9-1.9-1.6-2.6c-0.7-0.7-1.5-1.3-2.4-1.6c-0.9-0.4-1.9-0.6-3-0.6c-1.3,0-2.4,0.2-3.4,0.6s-1.9,1-2.6,1.7
		c-0.7,0.7-1.3,1.6-1.7,2.7c-0.4,1-0.7,2.2-0.9,3.5H268V36.1z"/>
</g>
<g>
	<rect x="9.4" y="26.7" fill="#FFFFFF" width="27.6" height="22.6"/>
	<g>
		<g>
			<g>
				<path d="M42.3,32.1c-4.1-13.8-10.1-17-23.9-12.8C4.7,23.4,1.5,29.4,5.6,43.2s10.1,17,23.9,12.8C43.3,51.9,46.5,45.9,42.3,32.1z
					 M32.8,41.9l-3.9,1.3L23.5,45l-3.9,1.3l-1.3-3.9l-1.7-5.2l-1.3-3.9l3.9-1.3l5.4-1.8l5.3,2.6l1.7,5.2L32.8,41.9z"/>
			</g>
		</g>
		<g>
			<path fill="none" d="M20.7,35.9c0.5,1.6,1.1,3.3,1.6,4.9l0,0l0,0l4.9-1.6l-1.6-4.9C23.9,34.8,22.2,35.4,20.7,35.9z"/>
			<path fill="#A7A7A7" d="M28.6,33.3c-0.4,0.1-0.9,0.3-1.4,0.4c-0.5,0.2-1.1,0.4-1.7,0.5l0,0l0,0l1.6,4.9l0,0l0,0l2.9-0.9l1.5-0.5
				c-0.5-1.6-1.1-3.3-1.6-4.9c-0.3,0.1-0.5,0.2-0.8,0.3C28.9,33.2,28.8,33.2,28.6,33.3z"/>
			<path fill="#A7A7A7" d="M24.1,29.9"/>
			<path fill="#A7A7A7" d="M31.7,42.5c-0.5,0.2-1,0.3-1.5,0.5c-0.4,0.1-0.8,0.2-1.1,0.4c0,0,0,0-0.1,0c-0.2,0.1-0.3,0.1-0.5,0.2
				l4.4-1.4C32.5,42.2,32.1,42.4,31.7,42.5L31.7,42.5z"/>
			<path fill="#B8B8B8" d="M21.5,45.8L21.5,45.8c-0.2,0.1-0.2,0.1-0.3,0.1C21,46,20.8,46,20.6,46.1c-0.5,0.2-0.9,0.3-1.3,0.4l0,0
				l4.4-1.4c-0.1,0-0.3,0.1-0.4,0.1C22.7,45.5,22.1,45.6,21.5,45.8z"/>
			<polygon fill="#B8B8B8" points="14.8,32.9 19.2,31.5 14.8,32.9 			"/>
			<path fill="#B8B8B8" d="M20.7,35.9c-0.1,0-0.2,0.1-0.4,0.1c-0.1,0-0.2,0.1-0.3,0.1c-0.5,0.2-1,0.3-1.5,0.5
				c-0.1,0-0.2,0.1-0.3,0.1c-0.2,0.1-0.3,0.1-0.5,0.2c-0.1,0-0.3,0.1-0.4,0.1c-0.2,0.1-0.3,0.1-0.5,0.2c-0.2,0.1-0.3,0.1-0.5,0.2
				l0,0l0,0l1.6,4.9l4.4-1.4C21.7,39.2,21.2,37.5,20.7,35.9z"/>
			<path fill="#595959" d="M31.5,37.7L30,38.2L31.5,37.7c0.5,1.7,1,3.2,1.4,4.4c-0.4,0.1-0.8,0.3-1.2,0.4c0.4-0.1,0.8-0.3,1.2-0.4
				L31.5,37.7z"/>
			<path fill="#595959" d="M29.1,43.4C29,43.4,29,43.4,29.1,43.4C29,43.4,29,43.4,29.1,43.4z"/>
			<path fill="#595959" d="M31.7,42.5c-0.5,0.2-1,0.3-1.5,0.5C30.7,42.8,31.2,42.7,31.7,42.5z"/>
			<path fill="#595959" d="M27.1,39.2L27.1,39.2l-4.9,1.6c0.5,1.7,1,3.2,1.4,4.4c-0.1,0-0.3,0.1-0.4,0.1c0.1,0,0.3-0.1,0.4-0.1
				c1.6-0.5,3.3-1.1,4.9-1.6L27.1,39.2z"/>
			<polygon fill="#595959" points="19.3,46.6 17.8,42.2 19.3,46.6 			"/>
			<path fill="#595959" d="M21.2,45.9C21,46,20.8,46,20.6,46.1C20.8,46.1,21,46,21.2,45.9z"/>
			<path fill="#595959" d="M21.5,45.8L21.5,45.8L21.5,45.8z"/>
			<path d="M19.3,46.6c0.4-0.1,0.9-0.3,1.3-0.4c0.2-0.1,0.4-0.1,0.6-0.2c0.1,0,0.2,0,0.2-0.1h0.1c0.5-0.2,1.1-0.4,1.7-0.6
				c0.1,0,0.3-0.1,0.4-0.1c-0.4-1.2-0.9-2.7-1.4-4.4l0,0l0,0l-4.4,1.4l0,0l0,0L19.3,46.6L19.3,46.6z"/>
			<path fill="#3B3B3B" d="M29.1,43.4c0.4-0.1,0.8-0.3,1.1-0.4c0.5-0.2,1-0.3,1.5-0.5l0,0c0.4-0.1,0.8-0.3,1.2-0.4
				c-0.4-1.2-0.9-2.7-1.4-4.4L30,38.2l-2.9,0.9l0,0l1.4,4.4l0,0l0,0C28.7,43.5,28.8,43.5,29.1,43.4C29,43.4,29,43.4,29.1,43.4z"/>
			<path fill="#D3D3D3" d="M28.6,33.3c-0.4,0.1-0.9,0.3-1.4,0.4C27.7,33.6,28.1,33.4,28.6,33.3z"/>
			<path fill="#D3D3D3" d="M20,36.1c-0.5,0.2-1,0.3-1.5,0.5C18.9,36.4,19.5,36.3,20,36.1z"/>
			<path fill="#D3D3D3" d="M20.7,35.9c-0.1,0-0.2,0.1-0.4,0.1C20.4,36,20.5,35.9,20.7,35.9c1.6-0.5,3.3-1.1,4.9-1.6l0,0l-1.4-4.4
				l5.8,3c-0.3,0.1-0.5,0.2-0.8,0.3c0.3-0.1,0.6-0.2,0.8-0.3l-5.8-3l-4.9,1.6C19.6,32.7,20.1,34.2,20.7,35.9z"/>
			<rect x="15.5" y="32.8" fill="#D3D3D3" width="0" height="4.6"/>
			<path fill="#D3D3D3" d="M18.1,36.7c-0.2,0.1-0.3,0.1-0.5,0.2C17.8,36.8,18,36.8,18.1,36.7z"/>
			<path fill="#D3D3D3" d="M17.3,37c-0.2,0.1-0.3,0.1-0.5,0.2C16.9,37.1,17.1,37,17.3,37z"/>
			<path fill="#8A8A8A" d="M14.8,32.9l1.4,4.4l0,0c0.2-0.1,0.3-0.1,0.5-0.2c0.2-0.1,0.3-0.1,0.5-0.2c0.1,0,0.3-0.1,0.4-0.1
				c0.2-0.1,0.3-0.1,0.5-0.2c0.1,0,0.2-0.1,0.3-0.1c0.5-0.2,1-0.3,1.5-0.5c0.1,0,0.2-0.1,0.3-0.1c0.1,0,0.2-0.1,0.4-0.1
				c-0.5-1.7-1-3.2-1.4-4.4l0,0l0,0L14.8,32.9L14.8,32.9z"/>
			<path fill="#6B6B6B" d="M27.2,33.8c0.5-0.2,0.9-0.3,1.4-0.4c0.2-0.1,0.3-0.1,0.5-0.2c0.3-0.1,0.6-0.2,0.8-0.3l-5.8-3l1.4,4.4l0,0
				C26.1,34.1,26.7,33.9,27.2,33.8z"/>
		</g>
	</g>
</g>
<g>
</g>
<g>
</g>
<g>
</g>
<g>
</g>
<g>
</g>
<g>
</g>
</svg>
